G75*
%MOIN*%
%OFA0B0*%
%FSLAX24Y24*%
%IPPOS*%
%LPD*%
%AMOC8*
5,1,8,0,0,1.08239X$1,22.5*
%
%ADD10C,0.0000*%
%ADD11C,0.0060*%
D10*
X000100Y000175D02*
X000100Y019545D01*
X033092Y019545D01*
X033092Y000175D01*
X000100Y000175D01*
D11*
X011125Y006568D02*
X011445Y006568D01*
X011552Y006674D01*
X011445Y006781D01*
X011125Y006781D01*
X011125Y006888D02*
X011125Y006568D01*
X011125Y006888D02*
X011232Y006995D01*
X011445Y006995D01*
X011875Y006995D02*
X011875Y006568D01*
X011982Y006568D02*
X011768Y006568D01*
X012199Y006568D02*
X012199Y006888D01*
X012306Y006995D01*
X012413Y006888D01*
X012413Y006568D01*
X012626Y006568D02*
X012626Y006995D01*
X012519Y006995D01*
X012413Y006888D01*
X012844Y006888D02*
X012844Y006568D01*
X013164Y006568D01*
X013271Y006674D01*
X013164Y006781D01*
X012844Y006781D01*
X012844Y006888D02*
X012950Y006995D01*
X013164Y006995D01*
X013488Y006995D02*
X013808Y006995D01*
X013915Y006888D01*
X013915Y006674D01*
X013808Y006568D01*
X013488Y006568D01*
X013488Y007208D01*
X013594Y007618D02*
X013381Y008045D01*
X013808Y008045D02*
X013594Y007618D01*
X014025Y007618D02*
X014452Y007618D01*
X014025Y008045D01*
X014452Y008045D01*
X014670Y007938D02*
X014670Y007831D01*
X015097Y007831D01*
X015097Y007724D02*
X015097Y007938D01*
X014990Y008045D01*
X014777Y008045D01*
X014670Y007938D01*
X014990Y007618D02*
X015097Y007724D01*
X014990Y007618D02*
X014777Y007618D01*
X015314Y007618D02*
X015314Y008045D01*
X015741Y008045D02*
X015741Y007724D01*
X015635Y007618D01*
X015314Y007618D01*
X015959Y007618D02*
X016279Y007618D01*
X016386Y007724D01*
X016386Y007938D01*
X016279Y008045D01*
X015959Y008045D01*
X015959Y007511D01*
X016066Y007404D01*
X016172Y007404D01*
X016601Y007208D02*
X016601Y006568D01*
X016495Y006568D02*
X016708Y006568D01*
X016926Y006674D02*
X017033Y006568D01*
X017353Y006568D01*
X017353Y006354D02*
X017353Y006995D01*
X017033Y006995D01*
X016926Y006888D01*
X016926Y006674D01*
X016279Y006674D02*
X016172Y006568D01*
X015958Y006568D01*
X015852Y006674D01*
X015852Y006888D01*
X015958Y006995D01*
X016172Y006995D01*
X016279Y006888D01*
X016279Y006674D01*
X016279Y006265D02*
X016279Y006158D01*
X016279Y005945D02*
X016279Y005518D01*
X016386Y005518D02*
X016172Y005518D01*
X015956Y005518D02*
X015956Y005945D01*
X015743Y005945D02*
X015956Y005731D01*
X015743Y005945D02*
X015636Y005945D01*
X016279Y005945D02*
X016386Y005945D01*
X016603Y005838D02*
X016603Y005518D01*
X016924Y005518D01*
X017031Y005624D01*
X016924Y005731D01*
X016603Y005731D01*
X016603Y005838D02*
X016710Y005945D01*
X016924Y005945D01*
X017353Y006158D02*
X017353Y005518D01*
X017247Y005518D02*
X017460Y005518D01*
X017678Y005518D02*
X017998Y005518D01*
X018105Y005624D01*
X018105Y005838D01*
X017998Y005945D01*
X017678Y005945D01*
X017460Y006158D02*
X017353Y006158D01*
X017570Y006568D02*
X017891Y006568D01*
X017997Y006674D01*
X017891Y006781D01*
X017570Y006781D01*
X017570Y006888D02*
X017570Y006568D01*
X017570Y006888D02*
X017677Y006995D01*
X017891Y006995D01*
X018215Y006888D02*
X018642Y006888D01*
X018642Y006568D02*
X018642Y007208D01*
X018535Y007618D02*
X018642Y007724D01*
X018642Y007938D01*
X018535Y008045D01*
X018322Y008045D01*
X018215Y007938D01*
X018215Y007724D01*
X018322Y007618D01*
X018535Y007618D01*
X017997Y007724D02*
X017997Y007938D01*
X017891Y008045D01*
X017570Y008045D01*
X017353Y008045D02*
X017353Y007618D01*
X017353Y007831D02*
X017139Y008045D01*
X017033Y008045D01*
X016816Y008045D02*
X016709Y008045D01*
X016709Y007618D01*
X016816Y007618D02*
X016602Y007618D01*
X016601Y007208D02*
X016708Y007208D01*
X017570Y007618D02*
X017891Y007618D01*
X017997Y007724D01*
X017570Y007618D02*
X017570Y008258D01*
X017784Y008668D02*
X018105Y008668D01*
X018105Y009308D01*
X017784Y009308D01*
X017678Y009201D01*
X017678Y009095D01*
X017784Y008988D01*
X018105Y008988D01*
X017784Y008988D02*
X017678Y008881D01*
X017678Y008774D01*
X017784Y008668D01*
X017460Y008774D02*
X017460Y008988D01*
X017353Y009095D01*
X017140Y009095D01*
X017033Y008988D01*
X017033Y008881D01*
X017460Y008881D01*
X017460Y008774D02*
X017353Y008668D01*
X017140Y008668D01*
X016816Y008668D02*
X016816Y009095D01*
X016495Y009095D01*
X016389Y008988D01*
X016389Y008668D01*
X016171Y008988D02*
X015744Y008988D01*
X015527Y008881D02*
X015206Y009095D01*
X014989Y008988D02*
X014883Y009095D01*
X014669Y009095D01*
X014562Y008988D01*
X014562Y008881D01*
X014989Y008881D01*
X014989Y008774D02*
X014989Y008988D01*
X014989Y008774D02*
X014883Y008668D01*
X014669Y008668D01*
X014345Y008668D02*
X014345Y009095D01*
X014025Y009095D01*
X013918Y008988D01*
X013918Y008668D01*
X013700Y008774D02*
X013594Y008668D01*
X013380Y008668D01*
X013273Y008774D01*
X013273Y008988D01*
X013380Y009095D01*
X013594Y009095D01*
X013700Y008988D01*
X013700Y008774D01*
X013056Y008668D02*
X012736Y008668D01*
X012629Y008774D01*
X012629Y008988D01*
X012736Y009095D01*
X013056Y009095D01*
X013056Y009308D02*
X013056Y008668D01*
X012411Y008668D02*
X012198Y008668D01*
X012304Y008668D02*
X012304Y009095D01*
X012411Y009095D01*
X012304Y009308D02*
X012304Y009415D01*
X013810Y009718D02*
X013810Y010038D01*
X013917Y010145D01*
X014131Y010145D01*
X014131Y009931D02*
X013810Y009931D01*
X013810Y009718D02*
X014131Y009718D01*
X014237Y009824D01*
X014131Y009931D01*
X014455Y010038D02*
X014455Y009718D01*
X014882Y009718D02*
X014882Y010145D01*
X014562Y010145D01*
X014455Y010038D01*
X015100Y010038D02*
X015100Y009931D01*
X015527Y009931D01*
X015527Y009824D02*
X015527Y010038D01*
X015420Y010145D01*
X015206Y010145D01*
X015100Y010038D01*
X015420Y009718D02*
X015527Y009824D01*
X015420Y009718D02*
X015206Y009718D01*
X015527Y009308D02*
X015527Y008668D01*
X015527Y008881D02*
X015206Y008668D01*
X015743Y009718D02*
X015956Y009718D01*
X015850Y009718D02*
X015850Y010358D01*
X015956Y010358D01*
X016279Y010358D02*
X016279Y009718D01*
X016386Y009718D02*
X016172Y009718D01*
X016602Y009718D02*
X016816Y009718D01*
X016709Y009718D02*
X016709Y010145D01*
X016816Y010145D01*
X017033Y010145D02*
X017247Y009718D01*
X017460Y010145D01*
X017678Y010038D02*
X017678Y009718D01*
X017998Y009718D01*
X018105Y009824D01*
X017998Y009931D01*
X017678Y009931D01*
X017678Y010038D02*
X017784Y010145D01*
X017998Y010145D01*
X018967Y010145D02*
X018967Y009611D01*
X019074Y009504D01*
X019180Y009504D01*
X019074Y009308D02*
X019287Y009308D01*
X019394Y009201D01*
X019394Y009095D01*
X019287Y008988D01*
X018967Y008988D01*
X018967Y009201D02*
X018967Y008774D01*
X019074Y008668D01*
X019287Y008668D01*
X019394Y008774D01*
X019611Y008774D02*
X019718Y008668D01*
X019932Y008668D01*
X020038Y008774D01*
X019611Y009201D01*
X019611Y008774D01*
X020038Y008774D02*
X020038Y009201D01*
X019932Y009308D01*
X019718Y009308D01*
X019611Y009201D01*
X020256Y009201D02*
X020683Y008774D01*
X020576Y008668D01*
X020363Y008668D01*
X020256Y008774D01*
X020256Y009201D01*
X020363Y009308D01*
X020576Y009308D01*
X020683Y009201D01*
X020683Y008774D01*
X020900Y008668D02*
X021328Y008668D01*
X020900Y009095D01*
X020900Y009201D01*
X021007Y009308D01*
X021221Y009308D01*
X021328Y009201D01*
X021545Y008988D02*
X021652Y009095D01*
X021865Y009095D01*
X021972Y008988D01*
X021972Y008774D01*
X021865Y008668D01*
X021652Y008668D01*
X021545Y008774D01*
X021545Y008988D01*
X022190Y009095D02*
X022510Y009095D01*
X022617Y008988D01*
X022617Y008774D01*
X022510Y008668D01*
X022190Y008668D01*
X022833Y008668D02*
X023046Y008668D01*
X022940Y008668D02*
X022940Y009308D01*
X023046Y009308D01*
X023369Y009308D02*
X023369Y009415D01*
X023369Y009095D02*
X023369Y008668D01*
X023476Y008668D02*
X023262Y008668D01*
X023694Y008774D02*
X023694Y009095D01*
X023476Y009095D02*
X023369Y009095D01*
X023694Y008774D02*
X023800Y008668D01*
X023907Y008774D01*
X024014Y008668D01*
X024121Y008774D01*
X024121Y009095D01*
X024230Y009718D02*
X024123Y009824D01*
X024230Y009931D01*
X024443Y009931D01*
X024550Y010038D01*
X024443Y010145D01*
X024123Y010145D01*
X024230Y009718D02*
X024550Y009718D01*
X024767Y010145D02*
X024874Y010145D01*
X025087Y009931D01*
X025087Y009718D02*
X025087Y010145D01*
X025305Y010038D02*
X025305Y009718D01*
X025625Y009718D01*
X025732Y009824D01*
X025625Y009931D01*
X025305Y009931D01*
X025305Y010038D02*
X025412Y010145D01*
X025625Y010145D01*
X025949Y010038D02*
X025949Y009718D01*
X026163Y009718D02*
X026163Y010038D01*
X026056Y010145D01*
X025949Y010038D01*
X026163Y010038D02*
X026270Y010145D01*
X026376Y010145D01*
X026376Y009718D01*
X026593Y010145D02*
X026700Y010145D01*
X026914Y009931D01*
X026914Y009718D02*
X026914Y010145D01*
X027131Y010038D02*
X027131Y009931D01*
X027558Y009931D01*
X027558Y009824D02*
X027558Y010038D01*
X027451Y010145D01*
X027238Y010145D01*
X027131Y010038D01*
X027451Y009718D02*
X027558Y009824D01*
X027451Y009718D02*
X027238Y009718D01*
X027989Y010038D02*
X028203Y010038D01*
X028203Y010358D02*
X027776Y010358D01*
X028203Y010358D02*
X028203Y009718D01*
X028097Y009095D02*
X027990Y009095D01*
X028097Y009095D02*
X028310Y008881D01*
X028310Y008668D02*
X028310Y009095D01*
X028526Y009095D02*
X028740Y009095D01*
X028633Y009201D02*
X028633Y008774D01*
X028526Y008668D01*
X028526Y008365D02*
X028526Y008258D01*
X028526Y008045D02*
X028526Y007618D01*
X028632Y007618D02*
X028419Y007618D01*
X028203Y007618D02*
X028203Y008045D01*
X027989Y008045D02*
X027882Y008045D01*
X027989Y008045D02*
X028203Y007831D01*
X028526Y008045D02*
X028632Y008045D01*
X028850Y007938D02*
X028850Y007618D01*
X029170Y007618D01*
X029277Y007724D01*
X029170Y007831D01*
X028850Y007831D01*
X028850Y007938D02*
X028957Y008045D01*
X029170Y008045D01*
X029600Y008258D02*
X029600Y007618D01*
X029707Y007618D02*
X029493Y007618D01*
X029924Y007618D02*
X030244Y007618D01*
X030351Y007724D01*
X030351Y007938D01*
X030244Y008045D01*
X029924Y008045D01*
X029707Y008258D02*
X029600Y008258D01*
X029601Y008668D02*
X029707Y008774D01*
X029707Y009201D01*
X029601Y009095D02*
X029814Y009095D01*
X030032Y008988D02*
X030032Y008668D01*
X030352Y008668D01*
X030459Y008774D01*
X030352Y008881D01*
X030032Y008881D01*
X030032Y008988D02*
X030138Y009095D01*
X030352Y009095D01*
X030675Y009095D02*
X030782Y009095D01*
X030996Y008881D01*
X030996Y008668D02*
X030996Y009095D01*
X031212Y009095D02*
X031425Y009095D01*
X031319Y009201D02*
X031319Y008774D01*
X031212Y008668D01*
X031319Y008365D02*
X031319Y008258D01*
X031643Y008151D02*
X031750Y008258D01*
X031963Y008258D01*
X032070Y008151D01*
X032070Y008045D01*
X031963Y007938D01*
X031750Y007938D01*
X031643Y007831D01*
X031643Y007724D01*
X031750Y007618D01*
X031963Y007618D01*
X032070Y007724D01*
X031425Y007618D02*
X031212Y007618D01*
X031319Y007618D02*
X031319Y008045D01*
X031425Y008045D01*
X030996Y008045D02*
X030675Y008045D01*
X030569Y007938D01*
X030569Y007618D01*
X030996Y007618D02*
X030996Y008045D01*
X031643Y008774D02*
X031750Y008881D01*
X031963Y008881D01*
X032070Y008988D01*
X031963Y009095D01*
X031643Y009095D01*
X031643Y008774D02*
X031750Y008668D01*
X032070Y008668D01*
X031856Y009504D02*
X031750Y009504D01*
X031643Y009611D01*
X031643Y010145D01*
X031425Y010038D02*
X031425Y009824D01*
X031319Y009718D01*
X031105Y009718D01*
X030998Y009824D01*
X030998Y010038D01*
X031105Y010145D01*
X031319Y010145D01*
X031425Y010038D01*
X031643Y009718D02*
X031963Y009718D01*
X032070Y009824D01*
X032070Y010145D01*
X030781Y010145D02*
X030781Y009718D01*
X030567Y009718D02*
X030567Y010038D01*
X030461Y010145D01*
X030354Y010038D01*
X030354Y009718D01*
X030136Y009718D02*
X029816Y009718D01*
X029709Y009824D01*
X029709Y010038D01*
X029816Y010145D01*
X030136Y010145D01*
X030136Y010358D02*
X030136Y009718D01*
X030567Y010038D02*
X030674Y010145D01*
X030781Y010145D01*
X029492Y010038D02*
X029492Y009824D01*
X029385Y009718D01*
X029172Y009718D01*
X029065Y009824D01*
X029065Y010038D01*
X029172Y010145D01*
X029385Y010145D01*
X029492Y010038D01*
X029278Y009095D02*
X029064Y009095D01*
X028957Y008988D01*
X028957Y008774D01*
X029064Y008668D01*
X029278Y008668D01*
X029384Y008774D01*
X029384Y008988D01*
X029278Y009095D01*
X027773Y008774D02*
X027666Y008881D01*
X027346Y008881D01*
X027346Y008988D02*
X027346Y008668D01*
X027666Y008668D01*
X027773Y008774D01*
X027453Y009095D02*
X027346Y008988D01*
X027453Y009095D02*
X027666Y009095D01*
X027128Y008988D02*
X027022Y009095D01*
X026701Y009095D01*
X026484Y009095D02*
X026270Y009095D01*
X026377Y009201D02*
X026377Y008774D01*
X026270Y008668D01*
X026054Y008774D02*
X026054Y008988D01*
X025947Y009095D01*
X025734Y009095D01*
X025627Y008988D01*
X025627Y008774D01*
X025734Y008668D01*
X025947Y008668D01*
X026054Y008774D01*
X026056Y008258D02*
X025949Y008151D01*
X026376Y007724D01*
X026270Y007618D01*
X026056Y007618D01*
X025949Y007724D01*
X025949Y008151D01*
X026056Y008258D02*
X026270Y008258D01*
X026376Y008151D01*
X026376Y007724D01*
X026594Y007724D02*
X026701Y007618D01*
X026914Y007618D01*
X027021Y007724D01*
X026594Y008151D01*
X026594Y007724D01*
X027021Y007724D02*
X027021Y008151D01*
X026914Y008258D01*
X026701Y008258D01*
X026594Y008151D01*
X027239Y008151D02*
X027239Y008045D01*
X027666Y007618D01*
X027239Y007618D01*
X027239Y008151D02*
X027345Y008258D01*
X027559Y008258D01*
X027666Y008151D01*
X027128Y008668D02*
X026808Y008668D01*
X026701Y008774D01*
X026808Y008881D01*
X027022Y008881D01*
X027128Y008988D01*
X025087Y008258D02*
X025087Y007618D01*
X025087Y007831D02*
X024767Y008045D01*
X024443Y008045D02*
X024230Y008045D01*
X024123Y007938D01*
X024123Y007618D01*
X024443Y007618D01*
X024550Y007724D01*
X024443Y007831D01*
X024123Y007831D01*
X023906Y007831D02*
X023692Y008045D01*
X023585Y008045D01*
X023369Y008045D02*
X023369Y007618D01*
X023369Y007831D02*
X023155Y008045D01*
X023048Y008045D01*
X022725Y008045D02*
X022511Y008045D01*
X022404Y007938D01*
X022404Y007618D01*
X022725Y007618D01*
X022831Y007724D01*
X022725Y007831D01*
X022404Y007831D01*
X022187Y007938D02*
X022080Y008045D01*
X021760Y008045D01*
X021867Y007831D02*
X022080Y007831D01*
X022187Y007938D01*
X021867Y007831D02*
X021760Y007724D01*
X021867Y007618D01*
X022187Y007618D01*
X022187Y007208D02*
X021973Y007208D01*
X022080Y007208D02*
X022080Y006568D01*
X022187Y006568D02*
X021973Y006568D01*
X021757Y006568D02*
X021330Y006568D01*
X021113Y006674D02*
X021006Y006781D01*
X020686Y006781D01*
X020686Y006888D02*
X020686Y006568D01*
X021006Y006568D01*
X021113Y006674D01*
X021006Y006995D02*
X020792Y006995D01*
X020686Y006888D01*
X020468Y006995D02*
X020468Y006568D01*
X020468Y006781D02*
X020255Y006995D01*
X020148Y006995D01*
X019931Y006888D02*
X019931Y006674D01*
X019824Y006568D01*
X019611Y006568D01*
X019504Y006674D01*
X019504Y006888D01*
X019611Y006995D01*
X019824Y006995D01*
X019931Y006888D01*
X019609Y007404D02*
X019502Y007404D01*
X019395Y007511D01*
X019395Y008045D01*
X019179Y008045D02*
X019179Y007618D01*
X019179Y007831D02*
X018965Y008045D01*
X018859Y008045D01*
X019395Y008258D02*
X019395Y008365D01*
X020471Y008258D02*
X020684Y008151D01*
X020898Y007938D01*
X020578Y007938D01*
X020471Y007831D01*
X020471Y007724D01*
X020578Y007618D01*
X020791Y007618D01*
X020898Y007724D01*
X020898Y007938D01*
X021115Y008151D02*
X021542Y007724D01*
X021542Y007618D01*
X021330Y006995D02*
X021757Y006568D01*
X021757Y006995D02*
X021330Y006995D01*
X021437Y005945D02*
X021330Y005838D01*
X021330Y005731D01*
X021757Y005731D01*
X021757Y005624D02*
X021757Y005838D01*
X021650Y005945D01*
X021437Y005945D01*
X021113Y005945D02*
X020686Y005945D01*
X021113Y005518D01*
X020686Y005518D01*
X021437Y005518D02*
X021650Y005518D01*
X021757Y005624D01*
X021975Y005518D02*
X021975Y005945D01*
X022402Y005945D02*
X022402Y005624D01*
X022295Y005518D01*
X021975Y005518D01*
X022619Y005518D02*
X022940Y005518D01*
X023046Y005624D01*
X023046Y005838D01*
X022940Y005945D01*
X022619Y005945D01*
X022619Y005304D01*
X023264Y005518D02*
X023691Y005518D01*
X023264Y005945D01*
X023691Y005945D01*
X023908Y005838D02*
X023908Y005518D01*
X024229Y005518D01*
X024335Y005624D01*
X024229Y005731D01*
X023908Y005731D01*
X023908Y005838D02*
X024015Y005945D01*
X024229Y005945D01*
X024553Y005945D02*
X024766Y005518D01*
X024980Y005945D01*
X025197Y005945D02*
X025518Y005945D01*
X025625Y005838D01*
X025625Y005624D01*
X025518Y005518D01*
X025197Y005518D01*
X025197Y006158D01*
X025305Y006568D02*
X025305Y007208D01*
X025518Y006995D01*
X025732Y007208D01*
X025732Y006568D01*
X025087Y006568D02*
X024874Y006568D01*
X024981Y006568D02*
X024981Y006995D01*
X025087Y006995D01*
X024981Y007208D02*
X024981Y007315D01*
X024658Y007208D02*
X024658Y006568D01*
X024658Y006781D02*
X024337Y006995D01*
X024121Y006888D02*
X024014Y006995D01*
X023800Y006995D01*
X023694Y006888D01*
X023694Y006781D01*
X024121Y006781D01*
X024121Y006674D02*
X024121Y006888D01*
X024121Y006674D02*
X024014Y006568D01*
X023800Y006568D01*
X023476Y006568D02*
X023156Y006568D01*
X023049Y006674D01*
X023156Y006781D01*
X023369Y006781D01*
X023476Y006888D01*
X023369Y006995D01*
X023049Y006995D01*
X023906Y007618D02*
X023906Y008045D01*
X024767Y007618D02*
X025087Y007831D01*
X024658Y006781D02*
X024337Y006568D01*
X025842Y005945D02*
X026162Y005945D01*
X026269Y005838D01*
X026269Y005624D01*
X026162Y005518D01*
X025842Y005518D01*
X027130Y005518D02*
X027237Y005624D01*
X027237Y006051D01*
X027343Y005945D02*
X027130Y005945D01*
X027561Y005838D02*
X027561Y005518D01*
X027561Y005838D02*
X027668Y005945D01*
X027988Y005945D01*
X027988Y005518D01*
X028205Y005518D02*
X028526Y005518D01*
X028632Y005624D01*
X028526Y005731D01*
X028205Y005731D01*
X028205Y005838D02*
X028205Y005518D01*
X028205Y005838D02*
X028312Y005945D01*
X028526Y005945D01*
X028850Y005945D02*
X029170Y005945D01*
X029277Y005838D01*
X029277Y005624D01*
X029170Y005518D01*
X028850Y005518D01*
X029494Y005624D02*
X029494Y005838D01*
X029601Y005945D01*
X029815Y005945D01*
X029922Y005838D01*
X029922Y005624D01*
X029815Y005518D01*
X029601Y005518D01*
X029494Y005624D01*
X030138Y005945D02*
X030245Y005945D01*
X030459Y005731D01*
X030459Y005518D02*
X030459Y005945D01*
X030675Y005945D02*
X030888Y005945D01*
X030782Y006051D02*
X030782Y005624D01*
X030675Y005518D01*
X031106Y005731D02*
X031533Y005731D01*
X031533Y005624D02*
X031533Y005838D01*
X031426Y005945D01*
X031213Y005945D01*
X031106Y005838D01*
X031106Y005731D01*
X031213Y005518D02*
X031426Y005518D01*
X031533Y005624D01*
X031750Y005945D02*
X031856Y005945D01*
X032070Y005731D01*
X032070Y005518D02*
X032070Y005945D01*
X031963Y006568D02*
X031856Y006568D01*
X031750Y006674D01*
X031750Y007208D01*
X031856Y007208D02*
X031643Y007208D01*
X031425Y006888D02*
X031425Y006674D01*
X031319Y006568D01*
X031105Y006568D01*
X030998Y006674D01*
X030998Y006888D01*
X031105Y006995D01*
X031319Y006995D01*
X031425Y006888D01*
X031963Y006568D02*
X032070Y006674D01*
X030781Y006674D02*
X030781Y006888D01*
X030674Y006995D01*
X030461Y006995D01*
X030354Y006888D01*
X030354Y006781D01*
X030781Y006781D01*
X030781Y006674D02*
X030674Y006568D01*
X030461Y006568D01*
X030136Y006568D02*
X030136Y007208D01*
X029923Y006995D01*
X029709Y007208D01*
X029709Y006568D01*
X029492Y006674D02*
X029385Y006568D01*
X029172Y006568D01*
X029065Y006674D01*
X029065Y006888D01*
X029172Y006995D01*
X029385Y006995D01*
X029492Y006888D01*
X029492Y006674D01*
X028847Y006568D02*
X028847Y006995D01*
X028634Y006995D02*
X028527Y006995D01*
X028634Y006995D02*
X028847Y006781D01*
X028310Y006674D02*
X028203Y006568D01*
X027883Y006568D01*
X027883Y006461D02*
X027883Y006995D01*
X028203Y006995D01*
X028310Y006888D01*
X028310Y006674D01*
X028097Y006354D02*
X027990Y006354D01*
X027883Y006461D01*
X027666Y006674D02*
X027559Y006568D01*
X027239Y006568D01*
X027239Y006888D01*
X027345Y006995D01*
X027559Y006995D01*
X027559Y006781D02*
X027239Y006781D01*
X027021Y006568D02*
X027021Y006995D01*
X026701Y006995D01*
X026594Y006888D01*
X026594Y006568D01*
X027559Y006781D02*
X027666Y006674D01*
X023154Y009718D02*
X023154Y010251D01*
X023048Y010358D01*
X022831Y010358D02*
X022725Y010358D01*
X022725Y009718D01*
X022831Y009718D02*
X022618Y009718D01*
X022402Y009824D02*
X022295Y009718D01*
X022081Y009718D01*
X021975Y009824D01*
X021975Y010038D01*
X022081Y010145D01*
X022295Y010145D01*
X022402Y010038D01*
X022402Y009824D01*
X021757Y009718D02*
X021437Y009718D01*
X021330Y009824D01*
X021330Y010038D01*
X021437Y010145D01*
X021757Y010145D01*
X021757Y009504D01*
X021113Y009504D02*
X021113Y010145D01*
X020792Y010145D01*
X020686Y010038D01*
X020686Y009824D01*
X020792Y009718D01*
X021113Y009718D01*
X020468Y009718D02*
X020255Y009718D01*
X020361Y009718D02*
X020361Y010145D01*
X020468Y010145D01*
X020361Y010358D02*
X020361Y010465D01*
X020038Y010145D02*
X019718Y010145D01*
X019611Y010038D01*
X019611Y009718D01*
X019394Y009824D02*
X019287Y009718D01*
X018967Y009718D01*
X019394Y009824D02*
X019394Y010038D01*
X019287Y010145D01*
X018967Y010145D01*
X020038Y010145D02*
X020038Y009718D01*
X019074Y009308D02*
X018967Y009201D01*
X021115Y008258D02*
X021115Y008151D01*
X021115Y008258D02*
X021542Y008258D01*
X023048Y010038D02*
X023261Y010038D01*
X018215Y007208D02*
X018215Y006568D01*
X018429Y005945D02*
X018322Y005838D01*
X018322Y005518D01*
X018749Y005518D02*
X018749Y005945D01*
X018429Y005945D01*
X019072Y005945D02*
X019072Y005518D01*
X019179Y005518D02*
X018965Y005518D01*
X019397Y005624D02*
X019397Y005731D01*
X019503Y005838D01*
X019717Y005838D01*
X019824Y005945D01*
X019824Y006051D01*
X019717Y006158D01*
X019503Y006158D01*
X019397Y006051D01*
X019179Y005945D02*
X019072Y005945D01*
X019072Y006158D02*
X019072Y006265D01*
X019397Y005624D02*
X019503Y005518D01*
X019717Y005518D01*
X019824Y005624D01*
X016709Y008258D02*
X016709Y008365D01*
X014989Y006995D02*
X014776Y006568D01*
X014562Y006995D01*
X014345Y006995D02*
X014238Y006995D01*
X014238Y006568D01*
X014345Y006568D02*
X014131Y006568D01*
X014025Y005945D02*
X013918Y005838D01*
X013918Y005518D01*
X014238Y005518D01*
X014345Y005624D01*
X014238Y005731D01*
X013918Y005731D01*
X014025Y005945D02*
X014238Y005945D01*
X014561Y005945D02*
X014775Y005945D01*
X014668Y006051D02*
X014668Y005624D01*
X014561Y005518D01*
X013700Y005624D02*
X013594Y005518D01*
X013273Y005518D01*
X013056Y005518D02*
X013056Y006158D01*
X012949Y005945D02*
X012736Y005945D01*
X012629Y005838D01*
X012629Y005518D01*
X012411Y005624D02*
X012304Y005731D01*
X011984Y005731D01*
X011984Y005838D02*
X011984Y005518D01*
X012304Y005518D01*
X012411Y005624D01*
X012091Y005945D02*
X011984Y005838D01*
X012091Y005945D02*
X012304Y005945D01*
X012949Y005945D02*
X013056Y005838D01*
X013273Y005945D02*
X013594Y005945D01*
X013700Y005838D01*
X013700Y005624D01*
X011982Y006995D02*
X011875Y006995D01*
X011875Y007208D02*
X011875Y007315D01*
X014238Y007315D02*
X014238Y007208D01*
X016279Y010358D02*
X016386Y010358D01*
X016709Y010358D02*
X016709Y010465D01*
X018250Y014492D02*
X018143Y014599D01*
X018143Y015132D01*
X018463Y015132D01*
X018570Y015026D01*
X018570Y014812D01*
X018463Y014705D01*
X018143Y014705D01*
X017925Y014705D02*
X017712Y014705D01*
X017819Y014705D02*
X017819Y015132D01*
X017925Y015132D01*
X017819Y015346D02*
X017819Y015453D01*
X017496Y015132D02*
X017282Y015132D01*
X017389Y015239D02*
X017389Y014812D01*
X017282Y014705D01*
X017066Y014705D02*
X017066Y015346D01*
X016959Y015132D02*
X016746Y015132D01*
X016639Y015026D01*
X016639Y014705D01*
X016422Y014812D02*
X016315Y014705D01*
X015994Y014705D01*
X015994Y015132D01*
X015777Y015132D02*
X015457Y015132D01*
X015350Y015026D01*
X015350Y014812D01*
X015457Y014705D01*
X015777Y014705D01*
X015777Y015346D01*
X015672Y015755D02*
X015885Y015755D01*
X015992Y015862D01*
X015992Y016076D01*
X015885Y016182D01*
X015672Y016182D01*
X015565Y016076D01*
X015565Y015969D01*
X015992Y015969D01*
X016209Y016182D02*
X016530Y016182D01*
X016636Y016076D01*
X016636Y015862D01*
X016530Y015755D01*
X016209Y015755D01*
X016209Y016396D01*
X016316Y016805D02*
X016209Y016912D01*
X016209Y017126D01*
X016316Y017232D01*
X016636Y017232D01*
X016636Y017446D02*
X016636Y016805D01*
X016316Y016805D01*
X015992Y016912D02*
X015885Y016805D01*
X015672Y016805D01*
X015565Y016912D01*
X015565Y017126D01*
X015672Y017232D01*
X015885Y017232D01*
X015992Y017126D01*
X015992Y016912D01*
X015347Y016805D02*
X015347Y017232D01*
X015027Y017232D01*
X014920Y017126D01*
X014920Y016805D01*
X014703Y016912D02*
X014703Y017126D01*
X014596Y017232D01*
X014382Y017232D01*
X014276Y017126D01*
X014276Y017019D01*
X014703Y017019D01*
X014703Y016912D02*
X014596Y016805D01*
X014382Y016805D01*
X013951Y016912D02*
X013845Y016805D01*
X013951Y016912D02*
X013951Y017339D01*
X013845Y017232D02*
X014058Y017232D01*
X012984Y017232D02*
X012770Y016805D01*
X012557Y017232D01*
X012339Y017232D02*
X012126Y017446D01*
X012126Y016805D01*
X012339Y016805D02*
X011912Y016805D01*
X011695Y016805D02*
X011588Y016805D01*
X011588Y016912D01*
X011695Y016912D01*
X011695Y016805D01*
X011373Y016912D02*
X010945Y017339D01*
X010945Y016912D01*
X011052Y016805D01*
X011266Y016805D01*
X011373Y016912D01*
X011373Y017339D01*
X011266Y017446D01*
X011052Y017446D01*
X010945Y017339D01*
X011053Y016182D02*
X011373Y016182D01*
X011480Y016076D01*
X011480Y015862D01*
X011373Y015755D01*
X011053Y015755D01*
X010835Y015862D02*
X010835Y016076D01*
X010729Y016182D01*
X010515Y016182D01*
X010408Y016076D01*
X010408Y015862D01*
X010515Y015755D01*
X010729Y015755D01*
X010835Y015862D01*
X010191Y015755D02*
X010191Y016182D01*
X010084Y016182D01*
X009977Y016076D01*
X009871Y016182D01*
X009764Y016076D01*
X009764Y015755D01*
X009977Y015755D02*
X009977Y016076D01*
X010298Y015346D02*
X010298Y014705D01*
X009978Y014705D01*
X009871Y014812D01*
X009871Y015026D01*
X009978Y015132D01*
X010298Y015132D01*
X010516Y015026D02*
X010623Y015132D01*
X010729Y015026D01*
X010729Y014705D01*
X010516Y014705D02*
X010516Y015026D01*
X010729Y015026D02*
X010836Y015132D01*
X010943Y015132D01*
X010943Y014705D01*
X011160Y014812D02*
X011160Y015026D01*
X011267Y015132D01*
X011481Y015132D01*
X011587Y015026D01*
X011587Y014812D01*
X011481Y014705D01*
X011267Y014705D01*
X011160Y014812D01*
X011805Y014705D02*
X012125Y014705D01*
X012232Y014812D01*
X012232Y015132D01*
X012449Y015346D02*
X012876Y014705D01*
X013094Y014705D02*
X013094Y015026D01*
X013201Y015132D01*
X013308Y015026D01*
X013308Y014705D01*
X013521Y014705D02*
X013521Y015132D01*
X013414Y015132D01*
X013308Y015026D01*
X013739Y015026D02*
X013739Y014812D01*
X013845Y014705D01*
X014059Y014705D01*
X014166Y014812D01*
X014166Y015026D01*
X014059Y015132D01*
X013845Y015132D01*
X013739Y015026D01*
X014383Y015132D02*
X014703Y015132D01*
X014810Y015026D01*
X014810Y014812D01*
X014703Y014705D01*
X014383Y014705D01*
X015026Y014705D02*
X015132Y014705D01*
X015132Y014812D01*
X015026Y014812D01*
X015026Y014705D01*
X016422Y014812D02*
X016422Y015132D01*
X016959Y015132D02*
X017066Y015026D01*
X018250Y014492D02*
X018356Y014492D01*
X018356Y015755D02*
X018143Y015969D01*
X018143Y016396D01*
X017819Y016182D02*
X017605Y016182D01*
X017498Y016076D01*
X017498Y015755D01*
X017819Y015755D01*
X017925Y015862D01*
X017819Y015969D01*
X017498Y015969D01*
X017281Y016076D02*
X016854Y016076D01*
X016854Y016805D02*
X016854Y017126D01*
X016961Y017232D01*
X017067Y017126D01*
X017067Y016805D01*
X017281Y016805D02*
X017281Y017232D01*
X017174Y017232D01*
X017067Y017126D01*
X017498Y017126D02*
X017498Y016912D01*
X017605Y016805D01*
X017819Y016805D01*
X017925Y016912D01*
X017925Y017126D01*
X017819Y017232D01*
X017605Y017232D01*
X017498Y017126D01*
X018143Y017339D02*
X018143Y017446D01*
X018143Y017339D02*
X018356Y017126D01*
X018356Y016805D01*
X018356Y017126D02*
X018570Y017339D01*
X018570Y017446D01*
X018570Y016396D02*
X018570Y015969D01*
X018356Y015755D01*
X015347Y016076D02*
X014920Y016076D01*
X014703Y015969D02*
X014382Y015969D01*
X014276Y016076D01*
X014276Y016289D01*
X014382Y016396D01*
X014703Y016396D01*
X014703Y015755D01*
X014489Y015969D02*
X014276Y015755D01*
X014058Y015862D02*
X014058Y016076D01*
X013951Y016182D01*
X013738Y016182D01*
X013631Y016076D01*
X013631Y015969D01*
X014058Y015969D01*
X014058Y015862D02*
X013951Y015755D01*
X013738Y015755D01*
X013307Y015862D02*
X013200Y015755D01*
X013307Y015862D02*
X013307Y016289D01*
X013414Y016182D02*
X013200Y016182D01*
X012984Y016182D02*
X012984Y015755D01*
X012984Y015969D02*
X012770Y016182D01*
X012664Y016182D01*
X012447Y016076D02*
X012447Y015862D01*
X012340Y015755D01*
X012127Y015755D01*
X012020Y015862D01*
X012020Y016076D01*
X012127Y016182D01*
X012340Y016182D01*
X012447Y016076D01*
X011802Y015862D02*
X011695Y015862D01*
X011695Y015755D01*
X011802Y015755D01*
X011802Y015862D01*
X011805Y015132D02*
X011805Y014599D01*
X011912Y014492D01*
X012018Y014492D01*
X009654Y014812D02*
X009547Y014705D01*
X009333Y014705D01*
X009227Y014812D01*
X009227Y015026D01*
X009333Y015132D01*
X009547Y015132D01*
X009654Y015026D01*
X009654Y014812D01*
X009009Y014705D02*
X008689Y014705D01*
X008582Y014812D01*
X008582Y015026D01*
X008689Y015132D01*
X009009Y015132D01*
X009009Y014492D01*
X008365Y014705D02*
X008365Y015132D01*
X008365Y014919D02*
X008151Y015132D01*
X008044Y015132D01*
X007828Y015132D02*
X007721Y015132D01*
X007721Y014705D01*
X007828Y014705D02*
X007614Y014705D01*
X007398Y014705D02*
X007398Y015132D01*
X007291Y015132D01*
X007184Y015026D01*
X007078Y015132D01*
X006971Y015026D01*
X006971Y014705D01*
X007184Y014705D02*
X007184Y015026D01*
X006753Y015026D02*
X006753Y014812D01*
X006646Y014705D01*
X006433Y014705D01*
X006326Y014919D02*
X006753Y014919D01*
X006753Y015026D02*
X006646Y015132D01*
X006433Y015132D01*
X006326Y015026D01*
X006326Y014919D01*
X006109Y014705D02*
X005682Y015346D01*
X005464Y015346D02*
X005037Y015346D01*
X005037Y015239D01*
X005464Y014812D01*
X005464Y014705D01*
X005037Y014705D01*
X004820Y014705D02*
X004393Y015346D01*
X004175Y015239D02*
X004175Y014812D01*
X004068Y014705D01*
X003855Y014705D01*
X003748Y014812D01*
X003531Y014705D02*
X003531Y015346D01*
X003424Y015132D02*
X003210Y015132D01*
X003103Y015026D01*
X003103Y014705D01*
X002886Y014812D02*
X002779Y014919D01*
X002459Y014919D01*
X002459Y015026D02*
X002459Y014705D01*
X002779Y014705D01*
X002886Y014812D01*
X002566Y015132D02*
X002459Y015026D01*
X002566Y015132D02*
X002779Y015132D01*
X002241Y015132D02*
X002028Y015132D01*
X002135Y015239D02*
X002135Y014812D01*
X002028Y014705D01*
X003424Y015132D02*
X003531Y015026D01*
X003748Y015239D02*
X003855Y015346D01*
X004068Y015346D01*
X004175Y015239D01*
X004393Y014705D02*
X004820Y015346D01*
X007721Y015346D02*
X007721Y015453D01*
M02*
