G75*
%MOIN*%
%OFA0B0*%
%FSLAX24Y24*%
%IPPOS*%
%LPD*%
%AMOC8*
5,1,8,0,0,1.08239X$1,22.5*
%
%ADD10C,0.0400*%
%ADD11OC8,0.0520*%
%ADD12C,0.0520*%
%ADD13C,0.0640*%
%ADD14C,0.0590*%
%ADD15OC8,0.0590*%
%ADD16OC8,0.0670*%
%ADD17C,0.0670*%
%ADD18C,0.0740*%
%ADD19R,0.0512X0.0906*%
D10*
X029600Y012745D02*
X029600Y013105D01*
X031600Y013105D02*
X031600Y012745D01*
D11*
X031100Y014925D03*
X030100Y014925D03*
X029100Y014925D03*
X027600Y014925D03*
X026100Y014925D03*
X024600Y014925D03*
X023100Y014925D03*
X021850Y014925D03*
X021600Y012925D03*
X022600Y012925D03*
X023600Y011925D03*
X019600Y011925D03*
X011600Y012425D03*
X007100Y013175D03*
X003100Y013175D03*
X002350Y013175D03*
X001350Y013175D03*
X001100Y017175D03*
X001100Y018175D03*
X011350Y018175D03*
X011350Y017175D03*
X011600Y016425D03*
X021850Y018925D03*
X023100Y018925D03*
X024600Y018925D03*
X026100Y018925D03*
X027600Y018925D03*
X032100Y014925D03*
D12*
X031600Y011165D02*
X031600Y010685D01*
X030600Y010685D02*
X030600Y011165D01*
X029600Y011165D02*
X029600Y010685D01*
X028600Y010685D02*
X028600Y011165D01*
X027600Y011165D02*
X027600Y010685D01*
X026600Y010685D02*
X026600Y011165D01*
X025600Y011165D02*
X025600Y010685D01*
X024600Y010685D02*
X024600Y011165D01*
X023600Y011165D02*
X023600Y010685D01*
X022600Y010685D02*
X022600Y011165D01*
X021600Y011165D02*
X021600Y010685D01*
X020600Y010685D02*
X020600Y011165D01*
X019600Y011165D02*
X019600Y010685D01*
X018600Y010685D02*
X018600Y011165D01*
X017600Y011165D02*
X017600Y010685D01*
X016600Y010685D02*
X016600Y011165D01*
X015600Y011165D02*
X015600Y010685D01*
X014600Y010685D02*
X014600Y011165D01*
X013600Y011165D02*
X013600Y010685D01*
X012600Y010685D02*
X012600Y011165D01*
X012600Y005165D02*
X012600Y004685D01*
X013600Y004685D02*
X013600Y005165D01*
X014600Y005165D02*
X014600Y004685D01*
X015600Y004685D02*
X015600Y005165D01*
X016600Y005165D02*
X016600Y004685D01*
X017600Y004685D02*
X017600Y005165D01*
X018600Y005165D02*
X018600Y004685D01*
X019600Y004685D02*
X019600Y005165D01*
X020600Y005165D02*
X020600Y004685D01*
X021600Y004685D02*
X021600Y005165D01*
X022600Y005165D02*
X022600Y004685D01*
X023600Y004685D02*
X023600Y005165D01*
X024600Y005165D02*
X024600Y004685D01*
X025600Y004685D02*
X025600Y005165D01*
X026600Y005165D02*
X026600Y004685D01*
X027600Y004685D02*
X027600Y005165D01*
X028600Y005165D02*
X028600Y004685D01*
X029600Y004685D02*
X029600Y005165D01*
X030600Y005165D02*
X030600Y004685D01*
X031600Y004685D02*
X031600Y005165D01*
D13*
X031600Y003975D02*
X031600Y003375D01*
X030600Y003375D02*
X030600Y003975D01*
X029600Y003975D02*
X029600Y003375D01*
X028600Y003375D02*
X028600Y003975D01*
X027600Y003975D02*
X027600Y003375D01*
X026600Y003375D02*
X026600Y003975D01*
X025600Y003975D02*
X025600Y003375D01*
X024600Y003375D02*
X024600Y003975D01*
X024600Y011875D02*
X024600Y012475D01*
X025600Y012475D02*
X025600Y011875D01*
X026600Y011875D02*
X026600Y012475D01*
X027600Y012475D02*
X027600Y011875D01*
X027600Y013375D02*
X027600Y013975D01*
X026600Y013975D02*
X026600Y013375D01*
X025600Y013375D02*
X025600Y013975D01*
X024600Y013975D02*
X024600Y013375D01*
X029850Y016875D02*
X029850Y017475D01*
X030850Y017475D02*
X030850Y016875D01*
X031850Y016875D02*
X031850Y017475D01*
X006900Y017675D02*
X006300Y017675D01*
X006300Y016675D02*
X006900Y016675D01*
X006900Y018675D02*
X006300Y018675D01*
X001400Y015925D02*
X000800Y015925D01*
X000800Y014925D02*
X001400Y014925D01*
X001650Y009175D02*
X001050Y009175D01*
X001050Y008175D02*
X001650Y008175D01*
X001650Y007175D02*
X001050Y007175D01*
X001050Y006175D02*
X001650Y006175D01*
X001650Y005175D02*
X001050Y005175D01*
X001050Y004175D02*
X001650Y004175D01*
D14*
X007100Y010175D03*
D15*
X006100Y010175D03*
X005100Y010175D03*
X004100Y010175D03*
X003100Y010175D03*
X003100Y009175D03*
X004100Y009175D03*
X004100Y008175D03*
X003100Y008175D03*
X003100Y007175D03*
X004100Y007175D03*
X004100Y006175D03*
X003100Y006175D03*
X003100Y005175D03*
X004100Y005175D03*
X005100Y005175D03*
X006100Y005175D03*
X007100Y005175D03*
X008100Y005175D03*
X009100Y005175D03*
X010100Y005175D03*
X010100Y006175D03*
X009100Y006175D03*
X009100Y007175D03*
X010100Y007175D03*
X010100Y008175D03*
X009100Y008175D03*
X009100Y009175D03*
X010100Y009175D03*
X010100Y010175D03*
X009100Y010175D03*
X008100Y010175D03*
X008100Y011175D03*
X007100Y011175D03*
X006100Y011175D03*
X005100Y011175D03*
X004100Y011175D03*
X009100Y011175D03*
X009100Y004175D03*
X008100Y004175D03*
X007100Y004175D03*
X006100Y004175D03*
X005100Y004175D03*
X004100Y004175D03*
D16*
X003600Y017175D03*
X009100Y017175D03*
D17*
X009100Y018175D03*
X003600Y018175D03*
D18*
X005350Y002075D02*
X005350Y000775D01*
X006350Y000775D02*
X006350Y002075D01*
X007350Y002075D02*
X007350Y000775D01*
X008350Y000775D02*
X008350Y002075D01*
X010350Y002075D02*
X010350Y000775D01*
X011350Y000775D02*
X011350Y002075D01*
X012350Y002075D02*
X012350Y000775D01*
X013350Y000775D02*
X013350Y002075D01*
X014350Y002075D02*
X014350Y000775D01*
X015350Y000775D02*
X015350Y002075D01*
X016350Y002075D02*
X016350Y000775D01*
X017350Y000775D02*
X017350Y002075D01*
X018350Y002075D02*
X018350Y000775D01*
X019350Y000775D02*
X019350Y002075D01*
X020350Y002075D02*
X020350Y000775D01*
X021350Y000775D02*
X021350Y002075D01*
X022350Y002075D02*
X022350Y000775D01*
X023350Y000775D02*
X023350Y002075D01*
X024350Y002075D02*
X024350Y000775D01*
X025350Y000775D02*
X025350Y002075D01*
X026350Y002075D02*
X026350Y000775D01*
X027350Y000775D02*
X027350Y002075D01*
X028350Y002075D02*
X028350Y000775D01*
X029350Y000775D02*
X029350Y002075D01*
X030350Y002075D02*
X030350Y000775D01*
X031350Y000775D02*
X031350Y002075D01*
X032350Y002075D02*
X032350Y000775D01*
D19*
X018356Y012526D03*
X017569Y012526D03*
X016781Y012526D03*
X015994Y012526D03*
X015206Y012526D03*
X014419Y012526D03*
X013631Y012526D03*
X012844Y012526D03*
X012844Y018825D03*
X013631Y018825D03*
X014419Y018825D03*
X015206Y018825D03*
X015994Y018825D03*
X016781Y018825D03*
X017569Y018825D03*
X018356Y018825D03*
M02*
