%
M48
M72
T01C0.0120
T02C0.0236
T03C0.0240
T04C0.0320
T05C0.0400
%
T01
X10725Y2550
X11975Y2550
X11975Y3050
X13975Y2550
X14975Y2550
X15975Y2550
X11600Y5175
X11350Y5800
X10850Y6800
X10600Y7425
X11350Y7925
X11350Y8300
X11225Y9050
X12225Y10050
X11225Y10925
X9600Y9300
X8725Y8800
X8350Y8800
X9475Y7800
X8475Y7300
X8100Y7300
X9725Y6550
X11850Y7300
X6475Y8300
X5975Y7800
X5225Y7050
X4628Y10215
X2475Y10800
X1975Y10925
X2850Y11425
X2725Y11925
X3725Y12550
X4725Y12300
X5225Y13175
X5225Y13550
X7475Y12425
X7725Y12175
X7975Y11925
X8600Y12050
X8350Y12300
X7850Y12800
X8350Y13050
X8600Y13300
X8225Y13675
X8975Y13925
X9225Y14300
X7975Y15675
X9475Y12550
X14475Y16175
X16100Y16425
X18100Y15425
X18350Y15675
X19475Y15175
X19225Y16425
X19725Y16425
X16850Y18175
X18850Y18425
X25225Y16675
X19975Y13675
X21350Y12925
X21850Y13425
X19475Y12675
X18350Y13175
X15850Y13175
X18225Y10050
X18975Y10050
X29225Y12175
X22975Y2550
X21975Y2550
T02
X2600Y2175
X4100Y2175
X3100Y4175
X7600Y3175
X9100Y2675
X9600Y3175
X10100Y4175
X11663Y3675
X12413Y3675
X16913Y2800
X17913Y2800
X18913Y2800
X20600Y6300
X20350Y7300
X18725Y7925
X18850Y8675
X20600Y9675
X21850Y9425
X24100Y8175
X22975Y7300
X25725Y9800
X32225Y9800
X23850Y17300
X18975Y17425
X17475Y16550
X7975Y16550
X13600Y9425
X12600Y8425
X16725Y7300
X18100Y6550
T03
X29600Y13925
X31600Y13925
T04
X31100Y15425
X30100Y15425
X29100Y15425
X27600Y14925
X26100Y14925
X24600Y14925
X23100Y14925
X21850Y14925
X21600Y11925
X20600Y11925
X20600Y10925
X19600Y10925
X18600Y10925
X17600Y10925
X16600Y10925
X15600Y10925
X14600Y10925
X13600Y10925
X12600Y10925
X10100Y10175
X9100Y10175
X8100Y10175
X7100Y10175
X6100Y10175
X5100Y10175
X4100Y10175
X3100Y10175
X3100Y9175
X4100Y9175
X4100Y8175
X3100Y8175
X3100Y7175
X4100Y7175
X4100Y6175
X3100Y6175
X3100Y5175
X4100Y5175
X5100Y5175
X6100Y5175
X7100Y5175
X8100Y5175
X9100Y5175
X10100Y5175
X10100Y6175
X9100Y6175
X9100Y7175
X10100Y7175
X10100Y8175
X9100Y8175
X9100Y9175
X10100Y9175
X9100Y11175
X8100Y11175
X7100Y11175
X6100Y11175
X5100Y11175
X4100Y11175
X3100Y13175
X2350Y13175
X1350Y13175
X7100Y13175
X11600Y12425
X11600Y16425
X11350Y17175
X11350Y18175
X9100Y18175
X9100Y17175
X3600Y17175
X3600Y18175
X1100Y18175
X1100Y17175
X12600Y4925
X13600Y4925
X14600Y4925
X15600Y4925
X16600Y4925
X17600Y4925
X18600Y4925
X19600Y4925
X20600Y4925
X21600Y4925
X22600Y4925
X23600Y4925
X24600Y4925
X25600Y4925
X26600Y4925
X27600Y4925
X28600Y4925
X29600Y4925
X30600Y4925
X31600Y4925
X31600Y10925
X30600Y10925
X29600Y10925
X28600Y10925
X27600Y10925
X26600Y10925
X25600Y10925
X24600Y10925
X23600Y10925
X22600Y10925
X21600Y10925
X28600Y12175
X32600Y12175
X32100Y15425
X27600Y18925
X26100Y18925
X24600Y18925
X23100Y18925
X21850Y18925
X9100Y4175
X8100Y4175
X7100Y4175
X6100Y4175
X5100Y4175
X4100Y4175
T05
X1350Y4175
X1350Y5175
X1350Y6175
X1350Y7175
X1350Y8175
X1350Y9175
X1100Y14925
X1100Y15925
X6600Y16675
X6600Y17675
X6600Y18675
X22600Y13175
X23600Y13175
X24600Y13175
X25600Y13175
X26600Y13175
X27600Y13175
X27600Y12175
X26600Y12175
X25600Y12175
X24600Y12175
X23600Y12175
X22600Y12175
X29850Y17675
X30850Y17675
X31850Y17675
X31600Y3675
X30600Y3675
X29600Y3675
X28600Y3675
X27600Y3675
X26600Y3675
X25600Y3675
X24600Y3675
M30
