%
M48
M72
T01C0.0120
T02C0.0236
T03C0.0240
T04C0.0320
T05C0.0400
%
T01
X6694Y3226
X7187Y3030
X10139Y3620
X10435Y3915
X11419Y4900
X12108Y5589
X12305Y6081
X13191Y5786
X13978Y5884
X12600Y6573
X11320Y7065
X10927Y6671
X10631Y7262
X11714Y8148
X11419Y9034
X11124Y9723
X10631Y11100
X10828Y11691
X10336Y11789
X9746Y12085
X8171Y12675
X9269Y13463
X6891Y14053
X6104Y14053
X6301Y15038
X5710Y12675
X4824Y12380
X4234Y12183
X5415Y11789
X2856Y11593
X4628Y10215
X5612Y10116
X7777Y6967
X7974Y6376
X8663Y6967
X12600Y3325
X12206Y2931
X13289Y3128
X14667Y2833
X20868Y4014
X22639Y2734
X26183Y2636
X25789Y6179
X25297Y6671
X17226Y9624
X15553Y9919
X15061Y11593
X20490Y14742
X20671Y15628
X21754Y13660
X24017Y15234
X21163Y18778
X14372Y15038
T02
X17100Y16175
X18491Y17063
X19991Y16063
X19600Y15175
X14100Y9175
X12985Y7619
X9600Y5800
X8600Y4675
X5667Y4741
X9600Y2675
X9350Y1675
X16175Y3991
X16975Y2925
X18114Y3991
X19475Y2925
X23100Y3925
X25225Y2800
X21600Y6675
X19600Y8675
X25600Y8675
X30100Y6675
X8169Y16251
T03
X29600Y12925
X31600Y12925
T04
X31600Y10925
X30600Y10925
X29600Y10925
X28600Y10925
X27600Y10925
X26600Y10925
X25600Y10925
X24600Y10925
X23600Y10925
X22600Y10925
X21600Y10925
X20600Y10925
X19600Y10925
X18600Y10925
X17600Y10925
X16600Y10925
X15600Y10925
X14600Y10925
X13600Y10925
X12600Y10925
X10100Y10175
X9100Y10175
X8100Y10175
X7100Y10175
X6100Y10175
X5100Y10175
X4100Y10175
X3100Y10175
X3100Y9175
X4100Y9175
X4100Y8175
X3100Y8175
X3100Y7175
X4100Y7175
X4100Y6175
X3100Y6175
X3100Y5175
X4100Y5175
X5100Y5175
X6100Y5175
X7100Y5175
X8100Y5175
X9100Y5175
X10100Y5175
X10100Y6175
X9100Y6175
X9100Y7175
X10100Y7175
X10100Y8175
X9100Y8175
X9100Y9175
X10100Y9175
X9100Y11175
X8100Y11175
X7100Y11175
X6100Y11175
X5100Y11175
X4100Y11175
X3100Y13175
X2350Y13175
X1350Y13175
X7100Y13175
X11600Y12425
X11600Y16425
X11350Y17175
X11350Y18175
X9100Y18175
X9100Y17175
X3600Y17175
X3600Y18175
X1100Y18175
X1100Y17175
X19600Y11925
X21600Y12925
X22600Y12925
X23600Y11925
X23100Y14925
X21850Y14925
X24600Y14925
X26100Y14925
X27600Y14925
X29100Y14925
X30100Y14925
X31100Y14925
X32100Y14925
X27600Y18925
X26100Y18925
X24600Y18925
X23100Y18925
X21850Y18925
X21600Y4925
X20600Y4925
X19600Y4925
X18600Y4925
X17600Y4925
X16600Y4925
X15600Y4925
X14600Y4925
X13600Y4925
X12600Y4925
X9100Y4175
X8100Y4175
X7100Y4175
X6100Y4175
X5100Y4175
X4100Y4175
X22600Y4925
X23600Y4925
X24600Y4925
X25600Y4925
X26600Y4925
X27600Y4925
X28600Y4925
X29600Y4925
X30600Y4925
X31600Y4925
T05
X31600Y3675
X30600Y3675
X29600Y3675
X28600Y3675
X27600Y3675
X26600Y3675
X25600Y3675
X24600Y3675
X24600Y12175
X25600Y12175
X26600Y12175
X27600Y12175
X27600Y13675
X26600Y13675
X25600Y13675
X24600Y13675
X29850Y17175
X30850Y17175
X31850Y17175
X6600Y16675
X6600Y17675
X6600Y18675
X1100Y15925
X1100Y14925
X1350Y9175
X1350Y8175
X1350Y7175
X1350Y6175
X1350Y5175
X1350Y4175
M30
