G75*
%MOIN*%
%OFA0B0*%
%FSLAX24Y24*%
%IPPOS*%
%LPD*%
%AMOC8*
5,1,8,0,0,1.08239X$1,22.5*
%
%ADD10C,0.0000*%
%ADD11C,0.0040*%
%ADD12C,0.0030*%
%ADD13C,0.0070*%
%ADD14C,0.0060*%
%ADD15C,0.0160*%
%ADD16C,0.0020*%
%ADD17C,0.0050*%
%ADD18C,0.0120*%
%ADD19C,0.0200*%
%ADD20C,0.0100*%
%ADD21C,0.0394*%
%ADD22R,0.0340X0.0240*%
%ADD23R,0.0240X0.0340*%
D10*
X000100Y000175D02*
X000100Y019545D01*
X033092Y019545D01*
X033092Y000175D01*
X000100Y000175D01*
D11*
X011879Y003569D02*
X012053Y003395D01*
X012053Y003135D01*
X012395Y003222D02*
X012482Y003135D01*
X012655Y003135D01*
X012742Y003222D01*
X012742Y003395D01*
X012655Y003482D01*
X012482Y003482D01*
X012395Y003395D01*
X012395Y003222D01*
X012053Y003395D02*
X012226Y003569D01*
X012226Y003656D01*
X011879Y003656D02*
X011879Y003569D01*
X012911Y003482D02*
X012911Y003135D01*
X013084Y003135D02*
X013084Y003395D01*
X013171Y003482D01*
X013258Y003395D01*
X013258Y003135D01*
X013426Y003135D02*
X013687Y003135D01*
X013773Y003222D01*
X013773Y003395D01*
X013687Y003482D01*
X013426Y003482D01*
X013426Y003656D02*
X013426Y003135D01*
X013084Y003395D02*
X012997Y003482D01*
X012911Y003482D01*
X013942Y003395D02*
X013942Y003222D01*
X014029Y003135D01*
X014202Y003135D01*
X014289Y003222D01*
X014289Y003395D01*
X014202Y003482D01*
X014029Y003482D01*
X013942Y003395D01*
X014458Y003482D02*
X014718Y003482D01*
X014805Y003395D01*
X014805Y003222D01*
X014718Y003135D01*
X014458Y003135D01*
X014458Y002962D02*
X014458Y003482D01*
X014973Y003482D02*
X014973Y003135D01*
X014973Y003309D02*
X015147Y003482D01*
X015233Y003482D01*
X015403Y003482D02*
X015490Y003482D01*
X015490Y003135D01*
X015576Y003135D02*
X015403Y003135D01*
X015747Y003135D02*
X015747Y003482D01*
X015833Y003482D01*
X015920Y003395D01*
X016007Y003482D01*
X016094Y003395D01*
X016094Y003135D01*
X015920Y003135D02*
X015920Y003395D01*
X016262Y003395D02*
X016262Y003222D01*
X016349Y003135D01*
X016523Y003135D01*
X016609Y003309D02*
X016262Y003309D01*
X016262Y003395D02*
X016349Y003482D01*
X016523Y003482D01*
X016609Y003395D01*
X016609Y003309D01*
X017294Y003656D02*
X017641Y003656D01*
X017467Y003656D02*
X017467Y003135D01*
X017809Y003222D02*
X017809Y003395D01*
X017896Y003482D01*
X018069Y003482D01*
X018156Y003395D01*
X018156Y003309D01*
X017809Y003309D01*
X017809Y003222D02*
X017896Y003135D01*
X018069Y003135D01*
X018325Y003222D02*
X018412Y003135D01*
X018672Y003135D01*
X018841Y003135D02*
X018841Y003656D01*
X018842Y003758D02*
X018495Y003758D01*
X018842Y004105D01*
X018842Y004192D01*
X018755Y004278D01*
X018582Y004278D01*
X018495Y004192D01*
X019011Y004192D02*
X019011Y003845D01*
X019358Y004192D01*
X019358Y003845D01*
X019271Y003758D01*
X019097Y003758D01*
X019011Y003845D01*
X019526Y003758D02*
X019873Y003758D01*
X019700Y003758D02*
X019700Y004278D01*
X019526Y004105D01*
X019358Y004192D02*
X019271Y004278D01*
X019097Y004278D01*
X019011Y004192D01*
X020042Y004278D02*
X020042Y004018D01*
X020215Y004105D01*
X020302Y004105D01*
X020389Y004018D01*
X020389Y003845D01*
X020302Y003758D01*
X020129Y003758D01*
X020042Y003845D01*
X020387Y003656D02*
X020474Y003656D01*
X020474Y003135D01*
X020387Y003135D02*
X020561Y003135D01*
X020731Y003222D02*
X020818Y003135D01*
X020991Y003135D01*
X021078Y003222D01*
X021078Y003395D01*
X020991Y003482D01*
X020818Y003482D01*
X020731Y003395D01*
X020731Y003222D01*
X020219Y003222D02*
X020132Y003135D01*
X019959Y003135D01*
X019872Y003222D01*
X019872Y003395D01*
X019959Y003482D01*
X020132Y003482D01*
X020219Y003395D01*
X020219Y003222D01*
X019703Y003135D02*
X019703Y003395D01*
X019616Y003482D01*
X019356Y003482D01*
X019356Y003135D01*
X019187Y003135D02*
X019187Y003395D01*
X019101Y003482D01*
X018927Y003482D01*
X018841Y003395D01*
X018672Y003482D02*
X018412Y003482D01*
X018325Y003395D01*
X018325Y003222D01*
X020042Y004278D02*
X020389Y004278D01*
X021247Y003395D02*
X021247Y003222D01*
X021334Y003135D01*
X021594Y003135D01*
X021594Y003048D02*
X021594Y003482D01*
X021334Y003482D01*
X021247Y003395D01*
X021762Y003482D02*
X021849Y003482D01*
X021849Y003135D01*
X021762Y003135D02*
X021936Y003135D01*
X022106Y003222D02*
X022193Y003135D01*
X022366Y003135D01*
X022453Y003309D02*
X022106Y003309D01*
X022106Y003395D02*
X022106Y003222D01*
X022106Y003395D02*
X022193Y003482D01*
X022366Y003482D01*
X022453Y003395D01*
X022453Y003309D01*
X022622Y003395D02*
X022709Y003482D01*
X022969Y003482D01*
X022882Y003309D02*
X022709Y003309D01*
X022622Y003395D01*
X022882Y003309D02*
X022969Y003222D01*
X022882Y003135D01*
X022622Y003135D01*
X021849Y003656D02*
X021849Y003742D01*
X021594Y003048D02*
X021507Y002962D01*
X021420Y002962D01*
X015490Y003656D02*
X015490Y003742D01*
X031870Y002979D02*
X031870Y002632D01*
X031870Y002893D02*
X032217Y002893D01*
X032217Y002979D02*
X032217Y002632D01*
X032385Y002719D02*
X032732Y003066D01*
X032732Y002719D01*
X032646Y002632D01*
X032472Y002632D01*
X032385Y002719D01*
X032385Y003066D01*
X032472Y003153D01*
X032646Y003153D01*
X032732Y003066D01*
X032217Y002979D02*
X032043Y003153D01*
X031870Y002979D01*
X016039Y015380D02*
X016039Y015841D01*
X015809Y015611D01*
X016116Y015611D01*
X015656Y015764D02*
X015579Y015841D01*
X015426Y015841D01*
X015349Y015764D01*
X015349Y015457D01*
X015426Y015380D01*
X015579Y015380D01*
X015656Y015457D01*
X015195Y015380D02*
X015042Y015380D01*
X015119Y015380D02*
X015119Y015841D01*
X015195Y015841D02*
X015042Y015841D01*
X010249Y015716D02*
X010249Y015409D01*
X010173Y015332D01*
X010019Y015332D01*
X009942Y015409D01*
X010249Y015716D01*
X010173Y015793D01*
X010019Y015793D01*
X009942Y015716D01*
X009942Y015409D01*
X009789Y015409D02*
X009789Y015332D01*
X009712Y015332D01*
X009712Y015409D01*
X009789Y015409D01*
X009559Y015332D02*
X009252Y015332D01*
X009405Y015332D02*
X009405Y015793D01*
X009252Y015639D01*
X029370Y016175D02*
X029677Y016175D01*
D12*
X027258Y014636D02*
X027011Y014389D01*
X027011Y014636D02*
X027258Y014389D01*
X028409Y014272D02*
X028656Y014025D01*
X028409Y014025D02*
X028656Y014272D01*
X011132Y014253D02*
X011070Y014315D01*
X011070Y014561D01*
X011008Y014500D02*
X011132Y014500D01*
X010887Y014438D02*
X010887Y014253D01*
X010702Y014253D01*
X010640Y014315D01*
X010702Y014376D01*
X010887Y014376D01*
X010887Y014438D02*
X010825Y014500D01*
X010702Y014500D01*
X010518Y014438D02*
X010518Y014253D01*
X010518Y014438D02*
X010457Y014500D01*
X010333Y014500D01*
X010272Y014438D01*
X010150Y014315D02*
X010088Y014253D01*
X009965Y014253D01*
X009903Y014315D01*
X009903Y014561D01*
X009965Y014623D01*
X010088Y014623D01*
X010150Y014561D01*
X010272Y014623D02*
X010272Y014253D01*
X009782Y014253D02*
X009535Y014623D01*
X009413Y014623D02*
X009413Y014561D01*
X009167Y014315D01*
X009167Y014253D01*
X009413Y014253D01*
X009535Y014253D02*
X009782Y014623D01*
X009788Y014815D02*
X009603Y014815D01*
X009541Y014877D01*
X009541Y015001D01*
X009603Y015062D01*
X009788Y015062D01*
X009910Y015001D02*
X009910Y014877D01*
X009971Y014815D01*
X010095Y014815D01*
X010157Y014877D01*
X010157Y015001D01*
X010095Y015062D01*
X009971Y015062D01*
X009910Y015001D01*
X010278Y015062D02*
X010278Y014815D01*
X010401Y014815D02*
X010401Y015001D01*
X010463Y015062D01*
X010525Y015001D01*
X010525Y014815D01*
X010401Y015001D02*
X010340Y015062D01*
X010278Y015062D01*
X009419Y014877D02*
X009419Y014815D01*
X009357Y014815D01*
X009357Y014877D01*
X009419Y014877D01*
X009236Y014877D02*
X009236Y015001D01*
X009174Y015062D01*
X009051Y015062D01*
X008989Y015001D01*
X008989Y014877D01*
X009051Y014815D01*
X009174Y014815D01*
X009236Y014877D01*
X009167Y014623D02*
X009413Y014623D01*
X009045Y014623D02*
X008798Y014253D01*
X008677Y014376D02*
X008430Y014376D01*
X008430Y014315D02*
X008430Y014438D01*
X008492Y014500D01*
X008615Y014500D01*
X008677Y014438D01*
X008677Y014376D01*
X008615Y014253D02*
X008492Y014253D01*
X008430Y014315D01*
X008309Y014253D02*
X008309Y014438D01*
X008247Y014500D01*
X008185Y014438D01*
X008185Y014253D01*
X008062Y014253D02*
X008062Y014500D01*
X008123Y014500D01*
X008185Y014438D01*
X007940Y014253D02*
X007816Y014253D01*
X007878Y014253D02*
X007878Y014500D01*
X007816Y014500D01*
X007694Y014500D02*
X007633Y014500D01*
X007509Y014376D01*
X007509Y014253D02*
X007509Y014500D01*
X007388Y014438D02*
X007388Y014315D01*
X007326Y014253D01*
X007141Y014253D01*
X007141Y014129D02*
X007141Y014500D01*
X007326Y014500D01*
X007388Y014438D01*
X007019Y014438D02*
X007019Y014315D01*
X006958Y014253D01*
X006834Y014253D01*
X006773Y014315D01*
X006773Y014438D01*
X006834Y014500D01*
X006958Y014500D01*
X007019Y014438D01*
X006651Y014438D02*
X006651Y014315D01*
X006589Y014253D01*
X006404Y014253D01*
X006404Y014623D01*
X006404Y014500D02*
X006589Y014500D01*
X006651Y014438D01*
X006283Y014438D02*
X006283Y014253D01*
X006159Y014253D02*
X006159Y014438D01*
X006221Y014500D01*
X006283Y014438D01*
X006159Y014438D02*
X006098Y014500D01*
X006036Y014500D01*
X006036Y014253D01*
X005915Y014315D02*
X005915Y014438D01*
X005853Y014500D01*
X005729Y014500D01*
X005668Y014438D01*
X005668Y014315D01*
X005729Y014253D01*
X005853Y014253D01*
X005915Y014315D01*
X005546Y014253D02*
X005361Y014253D01*
X005299Y014315D01*
X005299Y014500D01*
X005178Y014623D02*
X004931Y014253D01*
X004810Y014253D02*
X004810Y014438D01*
X004748Y014500D01*
X004686Y014438D01*
X004686Y014253D01*
X004563Y014253D02*
X004563Y014500D01*
X004624Y014500D01*
X004686Y014438D01*
X004441Y014438D02*
X004441Y014315D01*
X004380Y014253D01*
X004256Y014253D01*
X004194Y014315D01*
X004194Y014438D01*
X004256Y014500D01*
X004380Y014500D01*
X004441Y014438D01*
X004073Y014500D02*
X003888Y014500D01*
X003826Y014438D01*
X003826Y014315D01*
X003888Y014253D01*
X004073Y014253D01*
X003704Y014253D02*
X003642Y014253D01*
X003642Y014315D01*
X003704Y014315D01*
X003704Y014253D01*
X003520Y014315D02*
X003520Y014438D01*
X003459Y014500D01*
X003274Y014500D01*
X003152Y014500D02*
X003152Y014253D01*
X002967Y014253D01*
X002905Y014315D01*
X002905Y014500D01*
X002784Y014438D02*
X002784Y014253D01*
X002784Y014438D02*
X002722Y014500D01*
X002599Y014500D01*
X002537Y014438D01*
X002415Y014500D02*
X002291Y014500D01*
X002353Y014561D02*
X002353Y014315D01*
X002415Y014253D01*
X002537Y014253D02*
X002537Y014623D01*
X002108Y014623D02*
X002108Y014685D01*
X002108Y014500D02*
X002108Y014253D01*
X002169Y014253D02*
X002046Y014253D01*
X001924Y014253D02*
X001739Y014253D01*
X001678Y014315D01*
X001678Y014438D01*
X001739Y014500D01*
X001924Y014500D01*
X001924Y014191D01*
X001863Y014129D01*
X001801Y014129D01*
X002046Y014500D02*
X002108Y014500D01*
X003274Y014623D02*
X003274Y014253D01*
X003459Y014253D01*
X003520Y014315D01*
X005423Y014129D02*
X005484Y014129D01*
X005546Y014191D01*
X005546Y014500D01*
X005613Y014815D02*
X005737Y014939D01*
X005737Y015186D01*
X005920Y015062D02*
X006043Y015062D01*
X006105Y015001D01*
X006105Y014815D01*
X005920Y014815D01*
X005858Y014877D01*
X005920Y014939D01*
X006105Y014939D01*
X006227Y015001D02*
X006473Y015001D01*
X006595Y015001D02*
X006657Y015062D01*
X006842Y015062D01*
X006842Y015186D02*
X006842Y014815D01*
X006657Y014815D01*
X006595Y014877D01*
X006595Y015001D01*
X006963Y015001D02*
X006963Y014877D01*
X007025Y014815D01*
X007148Y014815D01*
X007210Y014939D02*
X006963Y014939D01*
X006963Y015001D02*
X007025Y015062D01*
X007148Y015062D01*
X007210Y015001D01*
X007210Y014939D01*
X007331Y015001D02*
X007578Y015001D01*
X007700Y014939D02*
X007885Y014939D01*
X007947Y015001D01*
X007947Y015124D01*
X007885Y015186D01*
X007700Y015186D01*
X007700Y014815D01*
X007823Y014939D02*
X007947Y014815D01*
X008068Y014877D02*
X008068Y015001D01*
X008130Y015062D01*
X008253Y015062D01*
X008315Y015001D01*
X008315Y014939D01*
X008068Y014939D01*
X008068Y014877D02*
X008130Y014815D01*
X008253Y014815D01*
X008498Y014877D02*
X008498Y015124D01*
X008436Y015062D02*
X008560Y015062D01*
X008682Y015062D02*
X008682Y014815D01*
X008560Y014815D02*
X008498Y014877D01*
X008682Y014939D02*
X008805Y015062D01*
X008867Y015062D01*
X007878Y014685D02*
X007878Y014623D01*
X005613Y014815D02*
X005490Y014939D01*
X005490Y015186D01*
X002026Y003685D02*
X002026Y003438D01*
X001902Y003315D01*
X001779Y003438D01*
X001779Y003685D01*
X001658Y003624D02*
X001658Y003562D01*
X001596Y003500D01*
X001658Y003438D01*
X001658Y003377D01*
X001596Y003315D01*
X001472Y003315D01*
X001411Y003377D01*
X001288Y003377D02*
X001288Y003315D01*
X001227Y003315D01*
X001227Y003377D01*
X001288Y003377D01*
X001105Y003377D02*
X001043Y003315D01*
X000920Y003315D01*
X000858Y003377D01*
X000737Y003500D02*
X000490Y003500D01*
X000613Y003377D02*
X000613Y003624D01*
X000858Y003624D02*
X000920Y003685D01*
X001043Y003685D01*
X001105Y003624D01*
X001105Y003562D01*
X001043Y003500D01*
X001105Y003438D01*
X001105Y003377D01*
X001043Y003500D02*
X000982Y003500D01*
X001105Y003085D02*
X001105Y002715D01*
X000858Y003085D01*
X000858Y002715D01*
X000737Y002777D02*
X000675Y002715D01*
X000552Y002715D01*
X000490Y002777D01*
X000490Y003024D01*
X000552Y003085D01*
X000675Y003085D01*
X000737Y003024D01*
X000737Y002900D02*
X000613Y002900D01*
X000737Y002900D02*
X000737Y002777D01*
X001227Y002715D02*
X001412Y002715D01*
X001473Y002777D01*
X001473Y003024D01*
X001412Y003085D01*
X001227Y003085D01*
X001227Y002715D01*
X001227Y002485D02*
X001227Y002115D01*
X001227Y002238D02*
X001473Y002485D01*
X001288Y002300D02*
X001473Y002115D01*
X001412Y001885D02*
X001288Y001885D01*
X001227Y001824D01*
X001227Y001577D01*
X001288Y001515D01*
X001412Y001515D01*
X001473Y001577D01*
X001473Y001824D01*
X001412Y001885D01*
X001105Y001824D02*
X001105Y001577D01*
X001043Y001515D01*
X000858Y001515D01*
X000858Y001885D01*
X001043Y001885D01*
X001105Y001824D01*
X001043Y002115D02*
X000920Y002115D01*
X000858Y002177D01*
X000858Y002424D01*
X000920Y002485D01*
X001043Y002485D01*
X001105Y002424D01*
X001105Y002177D02*
X001043Y002115D01*
X000737Y001885D02*
X000490Y001885D01*
X000613Y001885D02*
X000613Y001515D01*
X000613Y001285D02*
X000613Y000915D01*
X000613Y000685D02*
X000613Y000315D01*
X000858Y000315D02*
X000858Y000685D01*
X000982Y000562D01*
X001105Y000685D01*
X001105Y000315D01*
X001227Y000377D02*
X001288Y000315D01*
X001412Y000315D01*
X001473Y000377D01*
X001473Y000438D01*
X001412Y000500D01*
X001288Y000500D01*
X001227Y000562D01*
X001227Y000624D01*
X001288Y000685D01*
X001412Y000685D01*
X001473Y000624D01*
X001350Y000915D02*
X001227Y000915D01*
X001288Y000915D02*
X001288Y001285D01*
X001227Y001285D02*
X001350Y001285D01*
X001105Y001224D02*
X001043Y001285D01*
X000858Y001285D01*
X000858Y000915D01*
X001043Y000915D01*
X001105Y000977D01*
X001105Y001224D01*
X000737Y001285D02*
X000490Y001285D01*
X000490Y000685D02*
X000737Y000685D01*
X000613Y002115D02*
X000613Y002485D01*
X000490Y002485D02*
X000737Y002485D01*
X001534Y003500D02*
X001596Y003500D01*
X001658Y003624D02*
X001596Y003685D01*
X001472Y003685D01*
X001411Y003624D01*
X023802Y002874D02*
X023802Y002627D01*
X023802Y002813D02*
X024049Y002813D01*
X024049Y002874D02*
X024049Y002627D01*
X024171Y002627D02*
X024171Y002689D01*
X024417Y002936D01*
X024417Y002998D01*
X024171Y002998D01*
X024049Y002874D02*
X023926Y002998D01*
X023802Y002874D01*
X025364Y002749D02*
X025364Y002502D01*
X025364Y002687D02*
X025611Y002687D01*
X025611Y002749D02*
X025611Y002502D01*
X025733Y002564D02*
X025794Y002502D01*
X025918Y002502D01*
X025980Y002564D01*
X025980Y002626D01*
X025918Y002687D01*
X025733Y002687D01*
X025733Y002564D01*
X025733Y002687D02*
X025856Y002811D01*
X025980Y002873D01*
X025611Y002749D02*
X025488Y002873D01*
X025364Y002749D01*
X026802Y002813D02*
X027049Y002813D01*
X027049Y002874D02*
X027049Y002627D01*
X027171Y002689D02*
X027232Y002627D01*
X027356Y002627D01*
X027417Y002689D01*
X027417Y002813D01*
X027356Y002874D01*
X027294Y002874D01*
X027171Y002813D01*
X027171Y002998D01*
X027417Y002998D01*
X027049Y002874D02*
X026926Y002998D01*
X026802Y002874D01*
X026802Y002627D01*
X027802Y002627D02*
X027802Y002874D01*
X027926Y002998D01*
X028049Y002874D01*
X028049Y002627D01*
X028049Y002813D02*
X027802Y002813D01*
X028171Y002813D02*
X028417Y002813D01*
X028356Y002998D02*
X028356Y002627D01*
X028171Y002813D02*
X028356Y002998D01*
X028802Y002874D02*
X028926Y002998D01*
X029049Y002874D01*
X029049Y002627D01*
X029171Y002689D02*
X029232Y002627D01*
X029356Y002627D01*
X029417Y002689D01*
X029417Y002751D01*
X029356Y002813D01*
X029294Y002813D01*
X029356Y002813D02*
X029417Y002874D01*
X029417Y002936D01*
X029356Y002998D01*
X029232Y002998D01*
X029171Y002936D01*
X029049Y002813D02*
X028802Y002813D01*
X028802Y002874D02*
X028802Y002627D01*
X029802Y002627D02*
X029802Y002874D01*
X029926Y002998D01*
X030049Y002874D01*
X030049Y002627D01*
X030171Y002627D02*
X030417Y002874D01*
X030417Y002936D01*
X030356Y002998D01*
X030232Y002998D01*
X030171Y002936D01*
X030049Y002813D02*
X029802Y002813D01*
X030171Y002627D02*
X030417Y002627D01*
X030802Y002627D02*
X030802Y002874D01*
X030926Y002998D01*
X031049Y002874D01*
X031049Y002627D01*
X031171Y002627D02*
X031417Y002627D01*
X031294Y002627D02*
X031294Y002998D01*
X031171Y002874D01*
X031049Y002813D02*
X030802Y002813D01*
D13*
X031247Y006834D02*
X031247Y007044D01*
X031247Y006939D02*
X031877Y006939D01*
X031877Y006834D02*
X031877Y007044D01*
X031772Y007263D02*
X031877Y007368D01*
X031877Y007579D01*
X031772Y007684D01*
X031877Y007908D02*
X031877Y008328D01*
X031877Y008118D02*
X031247Y008118D01*
X031457Y007908D01*
X031352Y007684D02*
X031247Y007579D01*
X031247Y007368D01*
X031352Y007263D01*
X031772Y007263D01*
X008881Y015335D02*
X008749Y015467D01*
X008749Y015994D01*
X008618Y015862D02*
X008881Y015862D01*
X008353Y015730D02*
X008353Y015599D01*
X007826Y015599D01*
X007826Y015730D02*
X007826Y015467D01*
X007957Y015335D01*
X008221Y015335D01*
X008353Y015730D02*
X008221Y015862D01*
X007957Y015862D01*
X007826Y015730D01*
X007561Y015730D02*
X007561Y015335D01*
X007034Y015335D02*
X007034Y015862D01*
X007429Y015862D01*
X007561Y015730D01*
X006769Y015730D02*
X006769Y015467D01*
X006637Y015335D01*
X006374Y015335D01*
X006242Y015467D01*
X006242Y015730D01*
X006374Y015862D01*
X006637Y015862D01*
X006769Y015730D01*
X005977Y015730D02*
X005977Y015467D01*
X005845Y015335D01*
X005450Y015335D01*
X005450Y016126D01*
X005450Y015862D02*
X005845Y015862D01*
X005977Y015730D01*
X005185Y015730D02*
X005185Y015335D01*
X004922Y015335D02*
X004922Y015730D01*
X005054Y015862D01*
X005185Y015730D01*
X004922Y015730D02*
X004790Y015862D01*
X004658Y015862D01*
X004658Y015335D01*
X004393Y015467D02*
X004393Y015730D01*
X004262Y015862D01*
X003998Y015862D01*
X003866Y015730D01*
X003866Y015467D01*
X003998Y015335D01*
X004262Y015335D01*
X004393Y015467D01*
X003602Y015994D02*
X003602Y016126D01*
X003602Y015994D02*
X003338Y015730D01*
X003338Y015335D01*
X003338Y015730D02*
X003074Y015994D01*
X003074Y016126D01*
X005950Y007974D02*
X006160Y007974D01*
X006055Y007974D02*
X006055Y007344D01*
X005950Y007344D02*
X006160Y007344D01*
X006380Y007449D02*
X006485Y007344D01*
X006695Y007344D01*
X006800Y007449D01*
X007024Y007344D02*
X007445Y007764D01*
X007445Y007869D01*
X007340Y007974D01*
X007129Y007974D01*
X007024Y007869D01*
X006800Y007869D02*
X006695Y007974D01*
X006485Y007974D01*
X006380Y007869D01*
X006380Y007449D01*
X007024Y007344D02*
X007445Y007344D01*
D14*
X011700Y005325D02*
X032500Y005325D01*
X032500Y007425D01*
X032456Y007427D01*
X032413Y007433D01*
X032371Y007442D01*
X032329Y007455D01*
X032289Y007472D01*
X032250Y007492D01*
X032213Y007515D01*
X032179Y007542D01*
X032146Y007571D01*
X032117Y007604D01*
X032090Y007638D01*
X032067Y007675D01*
X032047Y007714D01*
X032030Y007754D01*
X032017Y007796D01*
X032008Y007838D01*
X032002Y007881D01*
X032000Y007925D01*
X032002Y007969D01*
X032008Y008012D01*
X032017Y008054D01*
X032030Y008096D01*
X032047Y008136D01*
X032067Y008175D01*
X032090Y008212D01*
X032117Y008246D01*
X032146Y008279D01*
X032179Y008308D01*
X032213Y008335D01*
X032250Y008358D01*
X032289Y008378D01*
X032329Y008395D01*
X032371Y008408D01*
X032413Y008417D01*
X032456Y008423D01*
X032500Y008425D01*
X032500Y010525D01*
X011700Y010525D01*
X011700Y005325D01*
X012775Y005624D02*
X012881Y005731D01*
X013202Y005731D01*
X013202Y005838D02*
X013202Y005518D01*
X012881Y005518D01*
X012775Y005624D01*
X013095Y005945D02*
X013202Y005838D01*
X013095Y005945D02*
X012881Y005945D01*
X013419Y005838D02*
X013419Y005624D01*
X013526Y005518D01*
X013846Y005518D01*
X014170Y005518D02*
X014170Y006051D01*
X014277Y006158D01*
X014493Y006158D02*
X014920Y006158D01*
X014920Y006051D01*
X014493Y005624D01*
X014493Y005518D01*
X014277Y005838D02*
X014064Y005838D01*
X013846Y005945D02*
X013526Y005945D01*
X013419Y005838D01*
X013526Y006568D02*
X013419Y006674D01*
X013419Y006888D01*
X013526Y006995D01*
X013739Y006995D01*
X013846Y006888D01*
X013846Y006781D01*
X013419Y006781D01*
X013526Y006568D02*
X013739Y006568D01*
X014064Y006568D02*
X014064Y007208D01*
X014277Y006995D01*
X014491Y007208D01*
X014491Y006568D01*
X014708Y006674D02*
X014815Y006568D01*
X015028Y006568D01*
X015135Y006674D01*
X015135Y006888D01*
X015028Y006995D01*
X014815Y006995D01*
X014708Y006888D01*
X014708Y006674D01*
X015353Y006568D02*
X015353Y006995D01*
X015566Y006995D02*
X015673Y006995D01*
X015566Y006995D02*
X015353Y006781D01*
X015890Y006674D02*
X015997Y006568D01*
X016317Y006568D01*
X016317Y006461D02*
X016210Y006354D01*
X016103Y006354D01*
X016317Y006461D02*
X016317Y006995D01*
X015997Y006995D01*
X015890Y006888D01*
X015890Y006674D01*
X015565Y006158D02*
X015351Y006051D01*
X015138Y005838D01*
X015458Y005838D01*
X015565Y005731D01*
X015565Y005624D01*
X015458Y005518D01*
X015245Y005518D01*
X015138Y005624D01*
X015138Y005838D01*
X015782Y005838D02*
X015782Y005624D01*
X015889Y005518D01*
X016103Y005518D01*
X016209Y005731D02*
X015782Y005731D01*
X015782Y005838D02*
X015889Y005945D01*
X016103Y005945D01*
X016209Y005838D01*
X016209Y005731D01*
X016427Y005838D02*
X016534Y005945D01*
X016854Y005945D01*
X016747Y005731D02*
X016534Y005731D01*
X016427Y005838D01*
X016427Y005518D02*
X016747Y005518D01*
X016854Y005624D01*
X016747Y005731D01*
X017716Y005624D02*
X017823Y005518D01*
X018143Y005518D01*
X018361Y005624D02*
X018361Y005838D01*
X018467Y005945D01*
X018788Y005945D01*
X018788Y006158D02*
X018788Y005518D01*
X018467Y005518D01*
X018361Y005624D01*
X018143Y005945D02*
X017823Y005945D01*
X017716Y005838D01*
X017716Y005624D01*
X019005Y005945D02*
X019219Y005518D01*
X019432Y005945D01*
X019757Y005945D02*
X019970Y005945D01*
X020077Y005838D01*
X020077Y005518D01*
X019757Y005518D01*
X019650Y005624D01*
X019757Y005731D01*
X020077Y005731D01*
X020294Y005518D02*
X020721Y005518D01*
X020939Y005624D02*
X020939Y005838D01*
X021046Y005945D01*
X021366Y005945D01*
X021366Y005304D01*
X021366Y005518D02*
X021046Y005518D01*
X020939Y005624D01*
X020721Y005945D02*
X020294Y005945D01*
X020721Y005945D02*
X020294Y005518D01*
X021583Y005624D02*
X021690Y005518D01*
X022010Y005518D01*
X022010Y005945D01*
X022228Y005838D02*
X022335Y005945D01*
X022548Y005945D01*
X022655Y005838D01*
X022655Y005731D01*
X022228Y005731D01*
X022228Y005624D02*
X022228Y005838D01*
X022228Y005624D02*
X022335Y005518D01*
X022548Y005518D01*
X022872Y005518D02*
X023300Y005518D01*
X023300Y005945D02*
X022872Y005945D01*
X022872Y005518D02*
X023300Y005945D01*
X024162Y005945D02*
X024268Y005838D01*
X024482Y005838D01*
X024589Y005731D01*
X024589Y005624D01*
X024482Y005518D01*
X024268Y005518D01*
X024162Y005624D01*
X024162Y005945D02*
X024162Y006051D01*
X024268Y006158D01*
X024482Y006158D01*
X024589Y006051D01*
X024806Y005945D02*
X024913Y005945D01*
X024913Y005518D01*
X024806Y005518D02*
X025020Y005518D01*
X025236Y005518D02*
X025236Y005945D01*
X025556Y005945D01*
X025663Y005838D01*
X025663Y005518D01*
X025880Y005624D02*
X025987Y005518D01*
X026307Y005518D01*
X026525Y005518D02*
X026738Y005518D01*
X026632Y005518D02*
X026632Y006158D01*
X026525Y006158D01*
X026307Y005945D02*
X025987Y005945D01*
X025880Y005838D01*
X025880Y005624D01*
X024913Y006158D02*
X024913Y006265D01*
X024589Y006568D02*
X024376Y006568D01*
X024269Y006674D01*
X024269Y006888D01*
X024376Y006995D01*
X024589Y006995D01*
X024696Y006888D01*
X024696Y006674D01*
X024589Y006568D01*
X024052Y006995D02*
X023945Y006995D01*
X023732Y006781D01*
X023732Y006568D02*
X023732Y006995D01*
X023514Y006888D02*
X023514Y006568D01*
X023194Y006568D01*
X023087Y006674D01*
X023194Y006781D01*
X023514Y006781D01*
X023514Y006888D02*
X023408Y006995D01*
X023194Y006995D01*
X022870Y006995D02*
X022443Y006568D01*
X022870Y006568D01*
X022870Y006995D02*
X022443Y006995D01*
X022227Y007208D02*
X022013Y007208D01*
X022120Y007208D02*
X022120Y006568D01*
X022013Y006568D02*
X022227Y006568D01*
X021583Y005945D02*
X021583Y005624D01*
X021044Y006568D02*
X020724Y006568D01*
X020831Y006781D02*
X020724Y006888D01*
X020831Y006995D01*
X021151Y006995D01*
X021044Y006781D02*
X020831Y006781D01*
X021044Y006781D02*
X021151Y006674D01*
X021044Y006568D01*
X020506Y006781D02*
X020506Y006888D01*
X020400Y006995D01*
X020186Y006995D01*
X020079Y006888D01*
X020079Y006674D01*
X020186Y006568D01*
X020400Y006568D01*
X020506Y006781D02*
X020079Y006781D01*
X019863Y006568D02*
X019542Y006781D01*
X019863Y006995D01*
X019542Y007208D02*
X019542Y006568D01*
X019326Y006568D02*
X019113Y006568D01*
X019219Y006568D02*
X019219Y006995D01*
X019113Y006995D01*
X019219Y007208D02*
X019219Y007315D01*
X019113Y007618D02*
X019113Y008258D01*
X019433Y008045D02*
X019113Y007831D01*
X019433Y007618D01*
X019650Y007724D02*
X019757Y007831D01*
X020077Y007831D01*
X020077Y007938D02*
X020077Y007618D01*
X019757Y007618D01*
X019650Y007724D01*
X019757Y008045D02*
X019970Y008045D01*
X020077Y007938D01*
X020294Y008045D02*
X020294Y007618D01*
X020294Y007831D02*
X020508Y008045D01*
X020615Y008045D01*
X020831Y008045D02*
X020831Y007618D01*
X020831Y007831D02*
X021045Y008045D01*
X021152Y008045D01*
X021475Y008045D02*
X021689Y008045D01*
X021796Y007938D01*
X021796Y007618D01*
X021475Y007618D01*
X021369Y007724D01*
X021475Y007831D01*
X021796Y007831D01*
X022013Y007938D02*
X022120Y008045D01*
X022440Y008045D01*
X022333Y007831D02*
X022120Y007831D01*
X022013Y007938D01*
X022333Y007831D02*
X022440Y007724D01*
X022333Y007618D01*
X022013Y007618D01*
X022658Y007618D02*
X022658Y007724D01*
X023085Y008151D01*
X023085Y008258D01*
X022658Y008258D01*
X022548Y008668D02*
X022655Y008774D01*
X022655Y008988D01*
X022548Y009095D01*
X022335Y009095D01*
X022228Y008988D01*
X022228Y008774D01*
X022335Y008668D01*
X022548Y008668D01*
X022872Y008668D02*
X023300Y009095D01*
X023300Y009201D01*
X023193Y009308D01*
X022979Y009308D01*
X022872Y009201D01*
X023087Y009504D02*
X023087Y010145D01*
X023408Y010145D01*
X023514Y010038D01*
X023514Y009824D01*
X023408Y009718D01*
X023087Y009718D01*
X022870Y009824D02*
X022763Y009718D01*
X022443Y009718D01*
X022443Y009504D02*
X022443Y010145D01*
X022763Y010145D01*
X022870Y010038D01*
X022870Y009824D01*
X022225Y009824D02*
X022119Y009718D01*
X021905Y009718D01*
X021798Y009824D01*
X021798Y010038D01*
X021905Y010145D01*
X022119Y010145D01*
X022225Y010038D01*
X022225Y009824D01*
X021582Y009718D02*
X021369Y009718D01*
X021475Y009718D02*
X021475Y010358D01*
X021369Y010358D01*
X021152Y010358D02*
X021046Y010251D01*
X021046Y009718D01*
X020939Y010038D02*
X021152Y010038D01*
X020077Y010145D02*
X019757Y010145D01*
X019650Y010038D01*
X019757Y009931D01*
X019970Y009931D01*
X020077Y009824D01*
X019970Y009718D01*
X019650Y009718D01*
X019433Y010145D02*
X019326Y010145D01*
X019113Y009931D01*
X019113Y009718D02*
X019113Y010145D01*
X018895Y010038D02*
X018895Y009718D01*
X018575Y009718D01*
X018468Y009824D01*
X018575Y009931D01*
X018895Y009931D01*
X018895Y010038D02*
X018788Y010145D01*
X018575Y010145D01*
X018251Y010038D02*
X018251Y009718D01*
X018037Y009718D02*
X018037Y010038D01*
X018144Y010145D01*
X018251Y010038D01*
X018037Y010038D02*
X017930Y010145D01*
X017824Y010145D01*
X017824Y009718D01*
X017500Y010145D02*
X017286Y009931D01*
X017286Y009718D02*
X017286Y010145D01*
X017500Y010145D02*
X017607Y010145D01*
X017069Y010038D02*
X017069Y009931D01*
X016642Y009931D01*
X016642Y009824D02*
X016642Y010038D01*
X016749Y010145D01*
X016962Y010145D01*
X017069Y010038D01*
X016749Y009718D02*
X016642Y009824D01*
X016749Y009718D02*
X016962Y009718D01*
X016747Y009095D02*
X016534Y009095D01*
X016747Y009095D02*
X016854Y008988D01*
X016854Y008668D01*
X016534Y008668D01*
X016427Y008774D01*
X016534Y008881D01*
X016854Y008881D01*
X017072Y008988D02*
X017178Y009095D01*
X017499Y009095D01*
X017716Y009095D02*
X017930Y009095D01*
X017823Y009201D02*
X017823Y008774D01*
X017930Y008668D01*
X018146Y008774D02*
X018253Y008668D01*
X018466Y008668D01*
X018573Y008774D01*
X018573Y008988D01*
X018466Y009095D01*
X018253Y009095D01*
X018146Y008988D01*
X018146Y008774D01*
X018144Y008258D02*
X018251Y008151D01*
X017824Y007724D01*
X017930Y007618D01*
X018144Y007618D01*
X018251Y007724D01*
X018251Y008151D01*
X018144Y008258D02*
X017930Y008258D01*
X017824Y008151D01*
X017824Y007724D01*
X017606Y007724D02*
X017499Y007618D01*
X017286Y007618D01*
X017179Y007724D01*
X017606Y008151D01*
X017606Y007724D01*
X017179Y007724D02*
X017179Y008151D01*
X017286Y008258D01*
X017499Y008258D01*
X017606Y008151D01*
X016961Y008151D02*
X016961Y008045D01*
X016534Y007618D01*
X016961Y007618D01*
X016318Y008045D02*
X016211Y008045D01*
X015997Y007831D01*
X015997Y007618D02*
X015997Y008045D01*
X015674Y008045D02*
X015674Y007618D01*
X015568Y007618D02*
X015781Y007618D01*
X015350Y007618D02*
X015030Y007618D01*
X014923Y007724D01*
X015030Y007831D01*
X015350Y007831D01*
X015350Y007938D02*
X015243Y008045D01*
X015030Y008045D01*
X015350Y007938D02*
X015350Y007618D01*
X015568Y008045D02*
X015674Y008045D01*
X015674Y008258D02*
X015674Y008365D01*
X015674Y008668D02*
X015567Y008774D01*
X015567Y009201D01*
X015460Y009095D02*
X015674Y009095D01*
X015890Y009095D02*
X015890Y008668D01*
X015890Y008881D02*
X016103Y009095D01*
X016210Y009095D01*
X015997Y009718D02*
X015997Y010358D01*
X016424Y010358D01*
X016211Y010038D02*
X015997Y010038D01*
X015135Y010038D02*
X015135Y009824D01*
X015028Y009718D01*
X014815Y009718D01*
X014708Y009824D01*
X014708Y010038D01*
X014815Y010145D01*
X015028Y010145D01*
X015135Y010038D01*
X014491Y010038D02*
X014491Y009824D01*
X014384Y009718D01*
X014064Y009718D01*
X014064Y010358D01*
X014064Y010145D02*
X014384Y010145D01*
X014491Y010038D01*
X013846Y010038D02*
X013846Y009718D01*
X013633Y009718D02*
X013633Y010038D01*
X013739Y010145D01*
X013846Y010038D01*
X013633Y010038D02*
X013526Y010145D01*
X013419Y010145D01*
X013419Y009718D01*
X013202Y009824D02*
X013202Y010038D01*
X013095Y010145D01*
X012881Y010145D01*
X012775Y010038D01*
X012775Y009824D01*
X012881Y009718D01*
X013095Y009718D01*
X013202Y009824D01*
X012557Y009718D02*
X012237Y009718D01*
X012130Y009824D01*
X012130Y010145D01*
X012557Y010145D02*
X012557Y009611D01*
X012450Y009504D01*
X012344Y009504D01*
X012237Y009095D02*
X012557Y009095D01*
X012775Y009095D02*
X012988Y009095D01*
X012881Y009201D02*
X012881Y008774D01*
X012988Y008668D01*
X013204Y008668D02*
X013204Y009095D01*
X013204Y008881D02*
X013418Y009095D01*
X013525Y009095D01*
X013848Y009095D02*
X014062Y009095D01*
X014168Y008988D01*
X014168Y008668D01*
X013848Y008668D01*
X013741Y008774D01*
X013848Y008881D01*
X014168Y008881D01*
X014386Y009095D02*
X014599Y009095D01*
X014493Y009201D02*
X014493Y008774D01*
X014599Y008668D01*
X014816Y008774D02*
X014816Y008988D01*
X014922Y009095D01*
X015136Y009095D01*
X015243Y008988D01*
X015243Y008774D01*
X015136Y008668D01*
X014922Y008668D01*
X014816Y008774D01*
X014600Y008258D02*
X014600Y007618D01*
X014493Y007618D02*
X014707Y007618D01*
X014276Y007618D02*
X013956Y007618D01*
X013849Y007724D01*
X013849Y007938D01*
X013956Y008045D01*
X014276Y008045D01*
X014493Y008258D02*
X014600Y008258D01*
X013631Y007938D02*
X013631Y007618D01*
X013631Y007938D02*
X013525Y008045D01*
X013204Y008045D01*
X013204Y007618D01*
X012988Y007618D02*
X012775Y007618D01*
X012881Y007618D02*
X012881Y008045D01*
X012775Y008045D01*
X012557Y008151D02*
X012450Y008258D01*
X012237Y008258D01*
X012130Y008151D01*
X012130Y008045D01*
X012237Y007938D01*
X012450Y007938D01*
X012557Y007831D01*
X012557Y007724D01*
X012450Y007618D01*
X012237Y007618D01*
X012130Y007724D01*
X012344Y007208D02*
X012557Y007208D01*
X012450Y007208D02*
X012450Y006674D01*
X012344Y006568D01*
X012237Y006568D01*
X012130Y006674D01*
X012775Y006674D02*
X012775Y006888D01*
X012881Y006995D01*
X013095Y006995D01*
X013202Y006888D01*
X013202Y006674D01*
X013095Y006568D01*
X012881Y006568D01*
X012775Y006674D01*
X012881Y008258D02*
X012881Y008365D01*
X012557Y008774D02*
X012450Y008881D01*
X012237Y008881D01*
X012130Y008988D01*
X012237Y009095D01*
X012130Y008668D02*
X012450Y008668D01*
X012557Y008774D01*
X016534Y008151D02*
X016641Y008258D01*
X016855Y008258D01*
X016961Y008151D01*
X017072Y008668D02*
X017392Y008668D01*
X017499Y008774D01*
X017392Y008881D01*
X017178Y008881D01*
X017072Y008988D01*
X018468Y007208D02*
X018682Y006995D01*
X018895Y007208D01*
X018895Y006568D01*
X018468Y006568D02*
X018468Y007208D01*
X017606Y006888D02*
X017606Y006568D01*
X017606Y006888D02*
X017499Y006995D01*
X017179Y006995D01*
X017179Y006568D01*
X016961Y006568D02*
X016641Y006568D01*
X016534Y006674D01*
X016641Y006781D01*
X016961Y006781D01*
X016961Y006888D02*
X016855Y006995D01*
X016641Y006995D01*
X016961Y006888D02*
X016961Y006568D01*
X020079Y008774D02*
X020186Y008668D01*
X020293Y008774D01*
X020400Y008668D01*
X020506Y008774D01*
X020506Y009095D01*
X020724Y009095D02*
X020831Y009095D01*
X020831Y008668D01*
X020724Y008668D02*
X020938Y008668D01*
X021154Y008668D02*
X021367Y008668D01*
X021260Y008668D02*
X021260Y009308D01*
X021154Y009308D01*
X020831Y009308D02*
X020831Y009415D01*
X020079Y009095D02*
X020079Y008774D01*
X021583Y008774D02*
X021690Y008668D01*
X022010Y008668D01*
X021583Y008774D02*
X021583Y008988D01*
X021690Y009095D01*
X022010Y009095D01*
X022872Y008668D02*
X023300Y008668D01*
X023517Y008774D02*
X023944Y009201D01*
X023944Y008774D01*
X023837Y008668D01*
X023624Y008668D01*
X023517Y008774D01*
X023517Y009201D01*
X023624Y009308D01*
X023837Y009308D01*
X023944Y009201D01*
X024162Y009201D02*
X024268Y009308D01*
X024482Y009308D01*
X024589Y009201D01*
X024162Y008774D01*
X024268Y008668D01*
X024482Y008668D01*
X024589Y008774D01*
X024589Y009201D01*
X024806Y009201D02*
X024806Y009095D01*
X024913Y008988D01*
X025233Y008988D01*
X025233Y009201D02*
X025233Y008774D01*
X025126Y008668D01*
X024913Y008668D01*
X024806Y008774D01*
X024805Y008365D02*
X024805Y008258D01*
X024805Y008045D02*
X024805Y007511D01*
X024698Y007404D01*
X024591Y007404D01*
X025021Y007618D02*
X025021Y008045D01*
X025021Y007831D02*
X025235Y008045D01*
X025341Y008045D01*
X025558Y007938D02*
X025558Y007724D01*
X025665Y007618D01*
X025878Y007618D01*
X025985Y007724D01*
X025985Y007938D01*
X025878Y008045D01*
X025665Y008045D01*
X025558Y007938D01*
X026203Y007938D02*
X026203Y007724D01*
X026309Y007618D01*
X026630Y007618D01*
X026630Y008258D01*
X026630Y008045D02*
X026309Y008045D01*
X026203Y007938D01*
X026847Y008045D02*
X026847Y007618D01*
X026847Y007831D02*
X027061Y008045D01*
X027167Y008045D01*
X027384Y008045D02*
X027491Y008045D01*
X027491Y007618D01*
X027384Y007618D02*
X027598Y007618D01*
X027814Y007724D02*
X027921Y007618D01*
X028241Y007618D01*
X028241Y007511D02*
X028241Y008045D01*
X027921Y008045D01*
X027814Y007938D01*
X027814Y007724D01*
X028028Y007404D02*
X028134Y007404D01*
X028241Y007511D01*
X028459Y007724D02*
X028565Y007618D01*
X028886Y007618D01*
X028886Y008045D01*
X029103Y007938D02*
X029210Y008045D01*
X029423Y008045D01*
X029530Y007938D01*
X029530Y007831D01*
X029103Y007831D01*
X029103Y007724D02*
X029103Y007938D01*
X029103Y007724D02*
X029210Y007618D01*
X029423Y007618D01*
X029748Y007618D02*
X030175Y007618D01*
X030175Y008045D02*
X029748Y007618D01*
X029748Y008045D02*
X030175Y008045D01*
X030392Y008045D02*
X030606Y007618D01*
X030819Y008045D01*
X030820Y008668D02*
X030927Y008774D01*
X030927Y008988D01*
X030820Y009095D01*
X030606Y009095D01*
X030500Y008988D01*
X030500Y008774D01*
X030606Y008668D01*
X030820Y008668D01*
X031144Y008668D02*
X031464Y008668D01*
X031571Y008774D01*
X031571Y008988D01*
X031464Y009095D01*
X031144Y009095D01*
X031144Y009308D02*
X031144Y008668D01*
X031789Y008668D02*
X032002Y008668D01*
X031896Y008668D02*
X031896Y009095D01*
X031789Y009095D01*
X031896Y009308D02*
X031896Y009415D01*
X030390Y009718D02*
X030069Y009718D01*
X029963Y009824D01*
X030069Y009931D01*
X030390Y009931D01*
X030390Y010038D02*
X030390Y009718D01*
X030390Y010038D02*
X030283Y010145D01*
X030069Y010145D01*
X029745Y010038D02*
X029745Y009718D01*
X029318Y009718D02*
X029318Y010145D01*
X029638Y010145D01*
X029745Y010038D01*
X029100Y010038D02*
X029100Y009931D01*
X028673Y009931D01*
X028673Y009824D02*
X028673Y010038D01*
X028780Y010145D01*
X028994Y010145D01*
X029100Y010038D01*
X028780Y009718D02*
X028673Y009824D01*
X028780Y009718D02*
X028994Y009718D01*
X028673Y009308D02*
X028673Y008668D01*
X028673Y008881D02*
X028994Y009095D01*
X029211Y008988D02*
X029317Y009095D01*
X029531Y009095D01*
X029638Y008988D01*
X029638Y008881D01*
X029211Y008881D01*
X029211Y008774D02*
X029211Y008988D01*
X029211Y008774D02*
X029317Y008668D01*
X029531Y008668D01*
X029855Y008668D02*
X029855Y009095D01*
X030175Y009095D01*
X030282Y008988D01*
X030282Y008668D01*
X028994Y008668D02*
X028673Y008881D01*
X028456Y008988D02*
X028029Y008988D01*
X027811Y008988D02*
X027811Y008668D01*
X027811Y008988D02*
X027705Y009095D01*
X027384Y009095D01*
X027384Y008668D01*
X027167Y008881D02*
X026740Y008881D01*
X026740Y008774D02*
X026740Y008988D01*
X026847Y009095D01*
X027060Y009095D01*
X027167Y008988D01*
X027167Y008881D01*
X027060Y008668D02*
X026847Y008668D01*
X026740Y008774D01*
X026522Y008774D02*
X026522Y008881D01*
X026416Y008988D01*
X026095Y008988D01*
X026095Y008668D02*
X026095Y009308D01*
X026416Y009308D01*
X026522Y009201D01*
X026522Y009095D01*
X026416Y008988D01*
X026522Y008774D02*
X026416Y008668D01*
X026095Y008668D01*
X025233Y009201D02*
X025126Y009308D01*
X024913Y009308D01*
X024806Y009201D01*
X025020Y009504D02*
X025126Y009504D01*
X025233Y009611D01*
X025233Y010145D01*
X024913Y010145D01*
X024806Y010038D01*
X024806Y009824D01*
X024913Y009718D01*
X025233Y009718D01*
X024589Y009718D02*
X024589Y010038D01*
X024482Y010145D01*
X024162Y010145D01*
X024162Y009718D01*
X023945Y009718D02*
X023732Y009718D01*
X023839Y009718D02*
X023839Y010145D01*
X023732Y010145D01*
X023839Y010358D02*
X023839Y010465D01*
X022750Y011475D02*
X022600Y011475D01*
X022550Y011525D01*
X020650Y011525D01*
X020600Y011475D01*
X020450Y011475D01*
X020433Y011477D01*
X020416Y011481D01*
X020400Y011488D01*
X020386Y011498D01*
X020373Y011511D01*
X020363Y011525D01*
X020356Y011541D01*
X020352Y011558D01*
X020350Y011575D01*
X020350Y012275D01*
X020352Y012292D01*
X020356Y012309D01*
X020363Y012325D01*
X020373Y012339D01*
X020386Y012352D01*
X020400Y012362D01*
X020416Y012369D01*
X020433Y012373D01*
X020450Y012375D01*
X020600Y012375D01*
X020650Y012325D01*
X022550Y012325D01*
X022600Y012375D01*
X022750Y012375D01*
X022767Y012373D01*
X022784Y012369D01*
X022800Y012362D01*
X022814Y012352D01*
X022827Y012339D01*
X022837Y012325D01*
X022844Y012309D01*
X022848Y012292D01*
X022850Y012275D01*
X022850Y011575D01*
X022848Y011558D01*
X022844Y011541D01*
X022837Y011525D01*
X022827Y011511D01*
X022814Y011498D01*
X022800Y011488D01*
X022784Y011481D01*
X022767Y011477D01*
X022750Y011475D01*
X024100Y011925D02*
X024100Y012425D01*
X024350Y012675D01*
X024850Y012675D01*
X025100Y012425D01*
X025350Y012675D01*
X025850Y012675D01*
X026100Y012425D01*
X026350Y012675D01*
X026850Y012675D01*
X027100Y012425D01*
X027350Y012675D01*
X027850Y012675D01*
X028100Y012425D01*
X028100Y011925D01*
X027850Y011675D01*
X027350Y011675D01*
X027100Y011925D01*
X026850Y011675D01*
X026350Y011675D01*
X026100Y011925D01*
X026100Y012425D01*
X026100Y011925D02*
X025850Y011675D01*
X025350Y011675D01*
X025100Y011925D01*
X024850Y011675D01*
X024350Y011675D01*
X024100Y011925D01*
X025100Y011925D02*
X025100Y012425D01*
X024850Y013175D02*
X024350Y013175D01*
X024100Y013425D01*
X024100Y013925D01*
X024350Y014175D01*
X024850Y014175D01*
X025100Y013925D01*
X025350Y014175D01*
X025850Y014175D01*
X026100Y013925D01*
X026350Y014175D01*
X026850Y014175D01*
X027100Y013925D01*
X027350Y014175D01*
X027850Y014175D01*
X028100Y013925D01*
X028100Y013425D01*
X027850Y013175D01*
X027350Y013175D01*
X027100Y013425D01*
X026850Y013175D01*
X026350Y013175D01*
X026100Y013425D01*
X026100Y013925D01*
X026100Y013425D02*
X025850Y013175D01*
X025350Y013175D01*
X025100Y013425D01*
X024850Y013175D01*
X025100Y013425D02*
X025100Y013925D01*
X024408Y014305D02*
X024408Y014732D01*
X024712Y014724D02*
X025139Y014724D01*
X025357Y014724D02*
X025570Y014831D01*
X025677Y014831D01*
X025784Y014724D01*
X025784Y014511D01*
X025677Y014404D01*
X025463Y014404D01*
X025357Y014511D01*
X025357Y014724D02*
X025357Y015045D01*
X025784Y015045D01*
X026526Y015045D02*
X026846Y015045D01*
X026953Y014938D01*
X026953Y014724D01*
X026846Y014618D01*
X026526Y014618D01*
X026740Y014618D02*
X026953Y014404D01*
X026526Y014404D02*
X026526Y015045D01*
X026450Y015675D02*
X025750Y015675D01*
X025733Y015677D01*
X025716Y015681D01*
X025700Y015688D01*
X025686Y015698D01*
X025673Y015711D01*
X025663Y015725D01*
X025656Y015741D01*
X025652Y015758D01*
X025650Y015775D01*
X025650Y015925D01*
X025700Y015975D01*
X025700Y017875D01*
X025650Y017925D01*
X025650Y018075D01*
X025652Y018092D01*
X025656Y018109D01*
X025663Y018125D01*
X025673Y018139D01*
X025686Y018152D01*
X025700Y018162D01*
X025716Y018169D01*
X025733Y018173D01*
X025750Y018175D01*
X026450Y018175D01*
X026467Y018173D01*
X026484Y018169D01*
X026500Y018162D01*
X026514Y018152D01*
X026527Y018139D01*
X026537Y018125D01*
X026544Y018109D01*
X026548Y018092D01*
X026550Y018075D01*
X026550Y017925D01*
X026500Y017875D01*
X026500Y015975D01*
X026550Y015925D01*
X026550Y015775D01*
X026548Y015758D01*
X026544Y015741D01*
X026537Y015725D01*
X026527Y015711D01*
X026514Y015698D01*
X026500Y015688D01*
X026484Y015681D01*
X026467Y015677D01*
X026450Y015675D01*
X027150Y015775D02*
X027150Y015925D01*
X027200Y015975D01*
X027200Y017875D01*
X027150Y017925D01*
X027150Y018075D01*
X027152Y018092D01*
X027156Y018109D01*
X027163Y018125D01*
X027173Y018139D01*
X027186Y018152D01*
X027200Y018162D01*
X027216Y018169D01*
X027233Y018173D01*
X027250Y018175D01*
X027950Y018175D01*
X027967Y018173D01*
X027984Y018169D01*
X028000Y018162D01*
X028014Y018152D01*
X028027Y018139D01*
X028037Y018125D01*
X028044Y018109D01*
X028048Y018092D01*
X028050Y018075D01*
X028050Y017925D01*
X028000Y017875D01*
X028000Y015975D01*
X028050Y015925D01*
X028050Y015775D01*
X028048Y015758D01*
X028044Y015741D01*
X028037Y015725D01*
X028027Y015711D01*
X028014Y015698D01*
X028000Y015688D01*
X027984Y015681D01*
X027967Y015677D01*
X027950Y015675D01*
X027250Y015675D01*
X027233Y015677D01*
X027216Y015681D01*
X027200Y015688D01*
X027186Y015698D01*
X027173Y015711D01*
X027163Y015725D01*
X027156Y015741D01*
X027152Y015758D01*
X027150Y015775D01*
X028750Y015175D02*
X028750Y014675D01*
X028752Y014649D01*
X028757Y014623D01*
X028765Y014598D01*
X028777Y014575D01*
X028791Y014553D01*
X028809Y014534D01*
X028828Y014516D01*
X028850Y014502D01*
X028873Y014490D01*
X028898Y014482D01*
X028924Y014477D01*
X028950Y014475D01*
X030250Y014475D01*
X030276Y014477D01*
X030302Y014482D01*
X030327Y014490D01*
X030350Y014502D01*
X030372Y014516D01*
X030391Y014534D01*
X030409Y014553D01*
X030423Y014575D01*
X030435Y014598D01*
X030443Y014623D01*
X030448Y014649D01*
X030450Y014675D01*
X030450Y015175D01*
X030448Y015201D01*
X030443Y015227D01*
X030435Y015252D01*
X030423Y015275D01*
X030409Y015297D01*
X030391Y015316D01*
X030372Y015334D01*
X030350Y015348D01*
X030327Y015360D01*
X030302Y015368D01*
X030276Y015373D01*
X030250Y015375D01*
X028950Y015375D01*
X028924Y015373D01*
X028898Y015368D01*
X028873Y015360D01*
X028850Y015348D01*
X028828Y015334D01*
X028809Y015316D01*
X028791Y015297D01*
X028777Y015275D01*
X028765Y015252D01*
X028757Y015227D01*
X028752Y015201D01*
X028750Y015175D01*
X028454Y014669D02*
X028027Y014669D01*
X028241Y014669D02*
X028241Y014029D01*
X029250Y013825D02*
X031950Y013825D01*
X032250Y014475D02*
X030950Y014475D01*
X030924Y014477D01*
X030898Y014482D01*
X030873Y014490D01*
X030850Y014502D01*
X030828Y014516D01*
X030809Y014534D01*
X030791Y014553D01*
X030777Y014575D01*
X030765Y014598D01*
X030757Y014623D01*
X030752Y014649D01*
X030750Y014675D01*
X030750Y015175D01*
X030752Y015201D01*
X030757Y015227D01*
X030765Y015252D01*
X030777Y015275D01*
X030791Y015297D01*
X030809Y015316D01*
X030828Y015334D01*
X030850Y015348D01*
X030873Y015360D01*
X030898Y015368D01*
X030924Y015373D01*
X030950Y015375D01*
X032250Y015375D01*
X032276Y015373D01*
X032302Y015368D01*
X032327Y015360D01*
X032350Y015348D01*
X032372Y015334D01*
X032391Y015316D01*
X032409Y015297D01*
X032423Y015275D01*
X032435Y015252D01*
X032443Y015227D01*
X032448Y015201D01*
X032450Y015175D01*
X032450Y014675D01*
X032448Y014649D01*
X032443Y014623D01*
X032435Y014598D01*
X032423Y014575D01*
X032409Y014553D01*
X032391Y014534D01*
X032372Y014516D01*
X032350Y014502D01*
X032327Y014490D01*
X032302Y014482D01*
X032276Y014477D01*
X032250Y014475D01*
X031950Y013825D02*
X032009Y013823D01*
X032067Y013817D01*
X032126Y013808D01*
X032183Y013794D01*
X032239Y013777D01*
X032294Y013756D01*
X032348Y013732D01*
X032400Y013704D01*
X032450Y013673D01*
X032498Y013639D01*
X032543Y013602D01*
X032586Y013561D01*
X032627Y013518D01*
X032664Y013473D01*
X032698Y013425D01*
X032729Y013375D01*
X032757Y013323D01*
X032781Y013269D01*
X032802Y013214D01*
X032819Y013158D01*
X032833Y013101D01*
X032842Y013042D01*
X032848Y012984D01*
X032850Y012925D01*
X032848Y012866D01*
X032842Y012808D01*
X032833Y012749D01*
X032819Y012692D01*
X032802Y012636D01*
X032781Y012581D01*
X032757Y012527D01*
X032729Y012475D01*
X032698Y012425D01*
X032664Y012377D01*
X032627Y012332D01*
X032586Y012289D01*
X032543Y012248D01*
X032498Y012211D01*
X032450Y012177D01*
X032400Y012146D01*
X032348Y012118D01*
X032294Y012094D01*
X032239Y012073D01*
X032183Y012056D01*
X032126Y012042D01*
X032067Y012033D01*
X032009Y012027D01*
X031950Y012025D01*
X029250Y012025D01*
X029191Y012027D01*
X029133Y012033D01*
X029074Y012042D01*
X029017Y012056D01*
X028961Y012073D01*
X028906Y012094D01*
X028852Y012118D01*
X028800Y012146D01*
X028750Y012177D01*
X028702Y012211D01*
X028657Y012248D01*
X028614Y012289D01*
X028573Y012332D01*
X028536Y012377D01*
X028502Y012425D01*
X028471Y012475D01*
X028443Y012527D01*
X028419Y012581D01*
X028398Y012636D01*
X028381Y012692D01*
X028367Y012749D01*
X028358Y012808D01*
X028352Y012866D01*
X028350Y012925D01*
X028352Y012984D01*
X028358Y013042D01*
X028367Y013101D01*
X028381Y013158D01*
X028398Y013214D01*
X028419Y013269D01*
X028443Y013323D01*
X028471Y013375D01*
X028502Y013425D01*
X028536Y013473D01*
X028573Y013518D01*
X028614Y013561D01*
X028657Y013602D01*
X028702Y013639D01*
X028750Y013673D01*
X028800Y013704D01*
X028852Y013732D01*
X028906Y013756D01*
X028961Y013777D01*
X029017Y013794D01*
X029074Y013808D01*
X029133Y013817D01*
X029191Y013823D01*
X029250Y013825D01*
X027100Y013925D02*
X027100Y013425D01*
X027100Y012425D02*
X027100Y011925D01*
X027491Y010465D02*
X027491Y010358D01*
X027491Y010145D02*
X027491Y009718D01*
X027384Y009718D02*
X027598Y009718D01*
X027814Y009718D02*
X028028Y009718D01*
X027921Y009718D02*
X027921Y010358D01*
X027814Y010358D01*
X027491Y010145D02*
X027384Y010145D01*
X027167Y010145D02*
X026953Y009718D01*
X026740Y010145D01*
X026522Y010038D02*
X026522Y009718D01*
X026202Y009718D01*
X026095Y009824D01*
X026202Y009931D01*
X026522Y009931D01*
X026522Y010038D02*
X026416Y010145D01*
X026202Y010145D01*
X024162Y009201D02*
X024162Y008774D01*
X023729Y008258D02*
X023516Y008151D01*
X023302Y007938D01*
X023622Y007938D01*
X023729Y007831D01*
X023729Y007724D01*
X023622Y007618D01*
X023409Y007618D01*
X023302Y007724D01*
X023302Y007938D01*
X025558Y007208D02*
X025558Y006568D01*
X025985Y006568D02*
X025985Y007208D01*
X025985Y006888D02*
X025558Y006888D01*
X026203Y006674D02*
X026309Y006781D01*
X026630Y006781D01*
X026630Y006888D02*
X026523Y006995D01*
X026309Y006995D01*
X026630Y006888D02*
X026630Y006568D01*
X026309Y006568D01*
X026203Y006674D01*
X026847Y006568D02*
X027167Y006568D01*
X027274Y006674D01*
X027274Y006888D01*
X027167Y006995D01*
X026847Y006995D01*
X026847Y006354D01*
X027061Y005945D02*
X027275Y005945D01*
X027382Y005838D01*
X027382Y005518D01*
X027061Y005518D01*
X026955Y005624D01*
X027061Y005731D01*
X027382Y005731D01*
X027599Y005518D02*
X027813Y005518D01*
X027706Y005518D02*
X027706Y005945D01*
X027599Y005945D01*
X027706Y006158D02*
X027706Y006265D01*
X028029Y005945D02*
X028029Y005518D01*
X028029Y005731D02*
X028242Y005945D01*
X028349Y005945D01*
X028242Y006568D02*
X028028Y006568D01*
X027921Y006674D01*
X027921Y006888D01*
X028028Y006995D01*
X028242Y006995D01*
X028348Y006888D01*
X028348Y006674D01*
X028242Y006568D01*
X027705Y006568D02*
X027492Y006568D01*
X027599Y006568D02*
X027599Y007208D01*
X027492Y007208D01*
X028459Y007724D02*
X028459Y008045D01*
X027491Y008258D02*
X027491Y008365D01*
X028244Y009718D02*
X028457Y009718D01*
X028350Y009718D02*
X028350Y010358D01*
X028244Y010358D01*
X023050Y012525D02*
X023050Y013325D01*
X023048Y013342D01*
X023044Y013359D01*
X023037Y013375D01*
X023027Y013389D01*
X023014Y013402D01*
X023000Y013412D01*
X022984Y013419D01*
X022967Y013423D01*
X022950Y013425D01*
X021250Y013425D01*
X021233Y013423D01*
X021216Y013419D01*
X021200Y013412D01*
X021186Y013402D01*
X021173Y013389D01*
X021163Y013375D01*
X021156Y013359D01*
X021152Y013342D01*
X021150Y013325D01*
X021150Y012525D01*
X021152Y012508D01*
X021156Y012491D01*
X021163Y012475D01*
X021173Y012461D01*
X021186Y012448D01*
X021200Y012438D01*
X021216Y012431D01*
X021233Y012427D01*
X021250Y012425D01*
X022950Y012425D01*
X022967Y012427D01*
X022984Y012431D01*
X023000Y012438D01*
X023014Y012448D01*
X023027Y012461D01*
X023037Y012475D01*
X023044Y012491D01*
X023048Y012508D01*
X023050Y012525D01*
X022250Y012925D02*
X022200Y012925D01*
X022000Y012925D02*
X021950Y012925D01*
X023336Y014198D02*
X023443Y014091D01*
X023656Y014091D01*
X023763Y014198D01*
X023763Y014625D01*
X023336Y014198D01*
X023336Y014625D01*
X023443Y014732D01*
X023656Y014732D01*
X023763Y014625D01*
X023981Y014732D02*
X023981Y014305D01*
X024194Y014091D01*
X024408Y014305D01*
X024926Y014511D02*
X024926Y014938D01*
X024950Y015675D02*
X024250Y015675D01*
X024233Y015677D01*
X024216Y015681D01*
X024200Y015688D01*
X024186Y015698D01*
X024173Y015711D01*
X024163Y015725D01*
X024156Y015741D01*
X024152Y015758D01*
X024150Y015775D01*
X024150Y015925D01*
X024200Y015975D01*
X024200Y017875D01*
X024150Y017925D01*
X024150Y018075D01*
X024152Y018092D01*
X024156Y018109D01*
X024163Y018125D01*
X024173Y018139D01*
X024186Y018152D01*
X024200Y018162D01*
X024216Y018169D01*
X024233Y018173D01*
X024250Y018175D01*
X024950Y018175D01*
X024967Y018173D01*
X024984Y018169D01*
X025000Y018162D01*
X025014Y018152D01*
X025027Y018139D01*
X025037Y018125D01*
X025044Y018109D01*
X025048Y018092D01*
X025050Y018075D01*
X025050Y017925D01*
X025000Y017875D01*
X025000Y015975D01*
X025050Y015925D01*
X025050Y015775D01*
X025048Y015758D01*
X025044Y015741D01*
X025037Y015725D01*
X025027Y015711D01*
X025014Y015698D01*
X025000Y015688D01*
X024984Y015681D01*
X024967Y015677D01*
X024950Y015675D01*
X023550Y015775D02*
X023550Y015925D01*
X023500Y015975D01*
X023500Y017875D01*
X023550Y017925D01*
X023550Y018075D01*
X023548Y018092D01*
X023544Y018109D01*
X023537Y018125D01*
X023527Y018139D01*
X023514Y018152D01*
X023500Y018162D01*
X023484Y018169D01*
X023467Y018173D01*
X023450Y018175D01*
X022750Y018175D01*
X022733Y018173D01*
X022716Y018169D01*
X022700Y018162D01*
X022686Y018152D01*
X022673Y018139D01*
X022663Y018125D01*
X022656Y018109D01*
X022652Y018092D01*
X022650Y018075D01*
X022650Y017925D01*
X022700Y017875D01*
X022700Y015975D01*
X022650Y015925D01*
X022650Y015775D01*
X022652Y015758D01*
X022656Y015741D01*
X022663Y015725D01*
X022673Y015711D01*
X022686Y015698D01*
X022700Y015688D01*
X022716Y015681D01*
X022733Y015677D01*
X022750Y015675D01*
X023450Y015675D01*
X023467Y015677D01*
X023484Y015681D01*
X023500Y015688D01*
X023514Y015698D01*
X023527Y015711D01*
X023537Y015725D01*
X023544Y015741D01*
X023548Y015758D01*
X023550Y015775D01*
X022300Y015775D02*
X022300Y015925D01*
X022250Y015975D01*
X022250Y017875D01*
X022300Y017925D01*
X022300Y018075D01*
X022298Y018092D01*
X022294Y018109D01*
X022287Y018125D01*
X022277Y018139D01*
X022264Y018152D01*
X022250Y018162D01*
X022234Y018169D01*
X022217Y018173D01*
X022200Y018175D01*
X021500Y018175D01*
X021483Y018173D01*
X021466Y018169D01*
X021450Y018162D01*
X021436Y018152D01*
X021423Y018139D01*
X021413Y018125D01*
X021406Y018109D01*
X021402Y018092D01*
X021400Y018075D01*
X021400Y017925D01*
X021450Y017875D01*
X021450Y015975D01*
X021400Y015925D01*
X021400Y015775D01*
X021402Y015758D01*
X021406Y015741D01*
X021413Y015725D01*
X021423Y015711D01*
X021436Y015698D01*
X021450Y015688D01*
X021466Y015681D01*
X021483Y015677D01*
X021500Y015675D01*
X022200Y015675D01*
X022217Y015677D01*
X022234Y015681D01*
X022250Y015688D01*
X022264Y015698D01*
X022277Y015711D01*
X022287Y015725D01*
X022294Y015741D01*
X022298Y015758D01*
X022300Y015775D01*
X029350Y016925D02*
X029600Y016675D01*
X030100Y016675D01*
X030350Y016925D01*
X030600Y016675D01*
X031100Y016675D01*
X031350Y016925D01*
X031600Y016675D01*
X032100Y016675D01*
X032350Y016925D01*
X032350Y017425D01*
X032100Y017675D01*
X031600Y017675D01*
X031350Y017425D01*
X031350Y016925D01*
X031350Y017425D02*
X031100Y017675D01*
X030600Y017675D01*
X030350Y017425D01*
X030350Y016925D01*
X030350Y017425D02*
X030100Y017675D01*
X029600Y017675D01*
X029350Y017425D01*
X029350Y016925D01*
X012050Y015575D02*
X012050Y015425D01*
X012000Y015375D01*
X012000Y013475D01*
X012050Y013425D01*
X012050Y013275D01*
X012048Y013258D01*
X012044Y013241D01*
X012037Y013225D01*
X012027Y013211D01*
X012014Y013198D01*
X012000Y013188D01*
X011984Y013181D01*
X011967Y013177D01*
X011950Y013175D01*
X011250Y013175D01*
X011233Y013177D01*
X011216Y013181D01*
X011200Y013188D01*
X011186Y013198D01*
X011173Y013211D01*
X011163Y013225D01*
X011156Y013241D01*
X011152Y013258D01*
X011150Y013275D01*
X011150Y013425D01*
X011200Y013475D01*
X011200Y015375D01*
X011150Y015425D01*
X011150Y015575D01*
X011152Y015592D01*
X011156Y015609D01*
X011163Y015625D01*
X011173Y015639D01*
X011186Y015652D01*
X011200Y015662D01*
X011216Y015669D01*
X011233Y015673D01*
X011250Y015675D01*
X011950Y015675D01*
X011967Y015673D01*
X011984Y015669D01*
X012000Y015662D01*
X012014Y015652D01*
X012027Y015639D01*
X012037Y015625D01*
X012044Y015609D01*
X012048Y015592D01*
X012050Y015575D01*
X011750Y016725D02*
X010950Y016725D01*
X010933Y016727D01*
X010916Y016731D01*
X010900Y016738D01*
X010886Y016748D01*
X010873Y016761D01*
X010863Y016775D01*
X010856Y016791D01*
X010852Y016808D01*
X010850Y016825D01*
X010850Y018525D01*
X010852Y018542D01*
X010856Y018559D01*
X010863Y018575D01*
X010873Y018589D01*
X010886Y018602D01*
X010900Y018612D01*
X010916Y018619D01*
X010933Y018623D01*
X010950Y018625D01*
X011750Y018625D01*
X011767Y018623D01*
X011784Y018619D01*
X011800Y018612D01*
X011814Y018602D01*
X011827Y018589D01*
X011837Y018575D01*
X011844Y018559D01*
X011848Y018542D01*
X011850Y018525D01*
X011850Y016825D01*
X011848Y016808D01*
X011844Y016791D01*
X011837Y016775D01*
X011827Y016761D01*
X011814Y016748D01*
X011800Y016738D01*
X011784Y016731D01*
X011767Y016727D01*
X011750Y016725D01*
X011350Y017525D02*
X011350Y017575D01*
X011350Y017775D02*
X011350Y017825D01*
X007750Y017675D02*
X007752Y017748D01*
X007758Y017821D01*
X007768Y017893D01*
X007782Y017965D01*
X007799Y018036D01*
X007821Y018106D01*
X007846Y018175D01*
X007875Y018242D01*
X007907Y018307D01*
X007943Y018371D01*
X007983Y018433D01*
X008025Y018492D01*
X008071Y018549D01*
X008120Y018603D01*
X008172Y018655D01*
X008226Y018704D01*
X008283Y018750D01*
X008342Y018792D01*
X008404Y018832D01*
X008468Y018868D01*
X008533Y018900D01*
X008600Y018929D01*
X008669Y018954D01*
X008739Y018976D01*
X008810Y018993D01*
X008882Y019007D01*
X008954Y019017D01*
X009027Y019023D01*
X009100Y019025D01*
X009173Y019023D01*
X009246Y019017D01*
X009318Y019007D01*
X009390Y018993D01*
X009461Y018976D01*
X009531Y018954D01*
X009600Y018929D01*
X009667Y018900D01*
X009732Y018868D01*
X009796Y018832D01*
X009858Y018792D01*
X009917Y018750D01*
X009974Y018704D01*
X010028Y018655D01*
X010080Y018603D01*
X010129Y018549D01*
X010175Y018492D01*
X010217Y018433D01*
X010257Y018371D01*
X010293Y018307D01*
X010325Y018242D01*
X010354Y018175D01*
X010379Y018106D01*
X010401Y018036D01*
X010418Y017965D01*
X010432Y017893D01*
X010442Y017821D01*
X010448Y017748D01*
X010450Y017675D01*
X010448Y017602D01*
X010442Y017529D01*
X010432Y017457D01*
X010418Y017385D01*
X010401Y017314D01*
X010379Y017244D01*
X010354Y017175D01*
X010325Y017108D01*
X010293Y017043D01*
X010257Y016979D01*
X010217Y016917D01*
X010175Y016858D01*
X010129Y016801D01*
X010080Y016747D01*
X010028Y016695D01*
X009974Y016646D01*
X009917Y016600D01*
X009858Y016558D01*
X009796Y016518D01*
X009732Y016482D01*
X009667Y016450D01*
X009600Y016421D01*
X009531Y016396D01*
X009461Y016374D01*
X009390Y016357D01*
X009318Y016343D01*
X009246Y016333D01*
X009173Y016327D01*
X009100Y016325D01*
X009027Y016327D01*
X008954Y016333D01*
X008882Y016343D01*
X008810Y016357D01*
X008739Y016374D01*
X008669Y016396D01*
X008600Y016421D01*
X008533Y016450D01*
X008468Y016482D01*
X008404Y016518D01*
X008342Y016558D01*
X008283Y016600D01*
X008226Y016646D01*
X008172Y016695D01*
X008120Y016747D01*
X008071Y016801D01*
X008025Y016858D01*
X007983Y016917D01*
X007943Y016979D01*
X007907Y017043D01*
X007875Y017108D01*
X007846Y017175D01*
X007821Y017244D01*
X007799Y017314D01*
X007782Y017385D01*
X007768Y017457D01*
X007758Y017529D01*
X007752Y017602D01*
X007750Y017675D01*
X007100Y017925D02*
X007100Y017425D01*
X006850Y017175D01*
X007100Y016925D01*
X007100Y016425D01*
X006850Y016175D01*
X006350Y016175D01*
X006100Y016425D01*
X006100Y016925D01*
X006350Y017175D01*
X006100Y017425D01*
X006100Y017925D01*
X006350Y018175D01*
X006100Y018425D01*
X006100Y018925D01*
X006350Y019175D01*
X006850Y019175D01*
X007100Y018925D01*
X007100Y018425D01*
X006850Y018175D01*
X007100Y017925D01*
X006850Y018175D02*
X006350Y018175D01*
X006350Y017175D02*
X006850Y017175D01*
X009100Y018575D02*
X009100Y018875D01*
X008950Y018725D02*
X009250Y018725D01*
X003750Y018725D02*
X003450Y018725D01*
X003600Y018875D02*
X003600Y018575D01*
X002250Y017675D02*
X002252Y017748D01*
X002258Y017821D01*
X002268Y017893D01*
X002282Y017965D01*
X002299Y018036D01*
X002321Y018106D01*
X002346Y018175D01*
X002375Y018242D01*
X002407Y018307D01*
X002443Y018371D01*
X002483Y018433D01*
X002525Y018492D01*
X002571Y018549D01*
X002620Y018603D01*
X002672Y018655D01*
X002726Y018704D01*
X002783Y018750D01*
X002842Y018792D01*
X002904Y018832D01*
X002968Y018868D01*
X003033Y018900D01*
X003100Y018929D01*
X003169Y018954D01*
X003239Y018976D01*
X003310Y018993D01*
X003382Y019007D01*
X003454Y019017D01*
X003527Y019023D01*
X003600Y019025D01*
X003673Y019023D01*
X003746Y019017D01*
X003818Y019007D01*
X003890Y018993D01*
X003961Y018976D01*
X004031Y018954D01*
X004100Y018929D01*
X004167Y018900D01*
X004232Y018868D01*
X004296Y018832D01*
X004358Y018792D01*
X004417Y018750D01*
X004474Y018704D01*
X004528Y018655D01*
X004580Y018603D01*
X004629Y018549D01*
X004675Y018492D01*
X004717Y018433D01*
X004757Y018371D01*
X004793Y018307D01*
X004825Y018242D01*
X004854Y018175D01*
X004879Y018106D01*
X004901Y018036D01*
X004918Y017965D01*
X004932Y017893D01*
X004942Y017821D01*
X004948Y017748D01*
X004950Y017675D01*
X004948Y017602D01*
X004942Y017529D01*
X004932Y017457D01*
X004918Y017385D01*
X004901Y017314D01*
X004879Y017244D01*
X004854Y017175D01*
X004825Y017108D01*
X004793Y017043D01*
X004757Y016979D01*
X004717Y016917D01*
X004675Y016858D01*
X004629Y016801D01*
X004580Y016747D01*
X004528Y016695D01*
X004474Y016646D01*
X004417Y016600D01*
X004358Y016558D01*
X004296Y016518D01*
X004232Y016482D01*
X004167Y016450D01*
X004100Y016421D01*
X004031Y016396D01*
X003961Y016374D01*
X003890Y016357D01*
X003818Y016343D01*
X003746Y016333D01*
X003673Y016327D01*
X003600Y016325D01*
X003527Y016327D01*
X003454Y016333D01*
X003382Y016343D01*
X003310Y016357D01*
X003239Y016374D01*
X003169Y016396D01*
X003100Y016421D01*
X003033Y016450D01*
X002968Y016482D01*
X002904Y016518D01*
X002842Y016558D01*
X002783Y016600D01*
X002726Y016646D01*
X002672Y016695D01*
X002620Y016747D01*
X002571Y016801D01*
X002525Y016858D01*
X002483Y016917D01*
X002443Y016979D01*
X002407Y017043D01*
X002375Y017108D01*
X002346Y017175D01*
X002321Y017244D01*
X002299Y017314D01*
X002282Y017385D01*
X002268Y017457D01*
X002258Y017529D01*
X002252Y017602D01*
X002250Y017675D01*
X001100Y017575D02*
X001100Y017525D01*
X001100Y017775D02*
X001100Y017825D01*
X000600Y018525D02*
X000602Y018542D01*
X000606Y018559D01*
X000613Y018575D01*
X000623Y018589D01*
X000636Y018602D01*
X000650Y018612D01*
X000666Y018619D01*
X000683Y018623D01*
X000700Y018625D01*
X001500Y018625D01*
X001517Y018623D01*
X001534Y018619D01*
X001550Y018612D01*
X001564Y018602D01*
X001577Y018589D01*
X001587Y018575D01*
X001594Y018559D01*
X001598Y018542D01*
X001600Y018525D01*
X001600Y016825D01*
X001598Y016808D01*
X001594Y016791D01*
X001587Y016775D01*
X001577Y016761D01*
X001564Y016748D01*
X001550Y016738D01*
X001534Y016731D01*
X001517Y016727D01*
X001500Y016725D01*
X000700Y016725D01*
X000683Y016727D01*
X000666Y016731D01*
X000650Y016738D01*
X000636Y016748D01*
X000623Y016761D01*
X000613Y016775D01*
X000606Y016791D01*
X000602Y016808D01*
X000600Y016825D01*
X000600Y018525D01*
X000850Y016425D02*
X001350Y016425D01*
X001600Y016175D01*
X001600Y015675D01*
X001350Y015425D01*
X001600Y015175D01*
X001600Y014675D01*
X001350Y014425D01*
X000850Y014425D01*
X000600Y014675D01*
X000600Y015175D01*
X000850Y015425D01*
X000600Y015675D01*
X000600Y016175D01*
X000850Y016425D01*
X000850Y015425D02*
X001350Y015425D01*
X003950Y013625D02*
X004100Y013625D01*
X004150Y013575D01*
X006050Y013575D01*
X006100Y013625D01*
X006250Y013625D01*
X006267Y013623D01*
X006284Y013619D01*
X006300Y013612D01*
X006314Y013602D01*
X006327Y013589D01*
X006337Y013575D01*
X006344Y013559D01*
X006348Y013542D01*
X006350Y013525D01*
X006350Y012825D01*
X006348Y012808D01*
X006344Y012791D01*
X006337Y012775D01*
X006327Y012761D01*
X006314Y012748D01*
X006300Y012738D01*
X006284Y012731D01*
X006267Y012727D01*
X006250Y012725D01*
X006100Y012725D01*
X006050Y012775D01*
X004150Y012775D01*
X004100Y012725D01*
X003950Y012725D01*
X003933Y012727D01*
X003916Y012731D01*
X003900Y012738D01*
X003886Y012748D01*
X003873Y012761D01*
X003863Y012775D01*
X003856Y012791D01*
X003852Y012808D01*
X003850Y012825D01*
X003850Y013525D01*
X003852Y013542D01*
X003856Y013559D01*
X003863Y013575D01*
X003873Y013589D01*
X003886Y013602D01*
X003900Y013612D01*
X003916Y013619D01*
X003933Y013623D01*
X003950Y013625D01*
X001850Y012575D02*
X001803Y012577D01*
X001755Y012583D01*
X001709Y012592D01*
X001663Y012605D01*
X001619Y012621D01*
X001575Y012642D01*
X001534Y012665D01*
X001495Y012691D01*
X001458Y012721D01*
X001423Y012754D01*
X001391Y012789D01*
X001362Y012826D01*
X001850Y013775D02*
X001895Y013773D01*
X001941Y013768D01*
X001985Y013760D01*
X002029Y013748D01*
X002072Y013732D01*
X002114Y013714D01*
X002154Y013692D01*
X002192Y013668D01*
X002228Y013641D01*
X002263Y013611D01*
X002294Y013578D01*
X002324Y013543D01*
X001850Y013775D02*
X001805Y013773D01*
X001759Y013768D01*
X001715Y013760D01*
X001671Y013748D01*
X001628Y013732D01*
X001586Y013714D01*
X001546Y013692D01*
X001508Y013668D01*
X001472Y013641D01*
X001437Y013611D01*
X001406Y013578D01*
X001376Y013543D01*
X001850Y012575D02*
X001896Y012577D01*
X001942Y012582D01*
X001988Y012591D01*
X002033Y012603D01*
X002076Y012619D01*
X002118Y012638D01*
X002159Y012661D01*
X002198Y012686D01*
X002234Y012714D01*
X002269Y012745D01*
X002301Y012779D01*
X002330Y012815D01*
X001600Y009675D02*
X001100Y009675D01*
X000850Y009425D01*
X000850Y008925D01*
X001100Y008675D01*
X001600Y008675D01*
X001850Y008925D01*
X001850Y009425D01*
X001600Y009675D01*
X001600Y008675D02*
X001850Y008425D01*
X001850Y007925D01*
X001600Y007675D01*
X001850Y007425D01*
X001850Y006925D01*
X001600Y006675D01*
X001850Y006425D01*
X001850Y005925D01*
X001600Y005675D01*
X001850Y005425D01*
X001850Y004925D01*
X001600Y004675D01*
X001850Y004425D01*
X001850Y003925D01*
X001600Y003675D01*
X001100Y003675D01*
X000850Y003925D01*
X000850Y004425D01*
X001100Y004675D01*
X000850Y004925D01*
X000850Y005425D01*
X001100Y005675D01*
X001600Y005675D01*
X001100Y005675D02*
X000850Y005925D01*
X000850Y006425D01*
X001100Y006675D01*
X000850Y006925D01*
X000850Y007425D01*
X001100Y007675D01*
X000850Y007925D01*
X000850Y008425D01*
X001100Y008675D01*
X001100Y007675D02*
X001600Y007675D01*
X001600Y006675D02*
X001100Y006675D01*
X001100Y004675D02*
X001600Y004675D01*
X024100Y003925D02*
X024100Y003425D01*
X024350Y003175D01*
X024850Y003175D01*
X025100Y003425D01*
X025100Y003925D01*
X024850Y004175D01*
X024350Y004175D01*
X024100Y003925D01*
X025100Y003925D02*
X025350Y004175D01*
X025850Y004175D01*
X026100Y003925D01*
X026350Y004175D01*
X026850Y004175D01*
X027100Y003925D01*
X027350Y004175D01*
X027850Y004175D01*
X028100Y003925D01*
X028350Y004175D01*
X028850Y004175D01*
X029100Y003925D01*
X029350Y004175D01*
X029850Y004175D01*
X030100Y003925D01*
X030350Y004175D01*
X030850Y004175D01*
X031100Y003925D01*
X031350Y004175D01*
X031850Y004175D01*
X032100Y003925D01*
X032100Y003425D01*
X031850Y003175D01*
X031350Y003175D01*
X031100Y003425D01*
X030850Y003175D01*
X030350Y003175D01*
X030100Y003425D01*
X030100Y003925D01*
X030100Y003425D02*
X029850Y003175D01*
X029350Y003175D01*
X029100Y003425D01*
X028850Y003175D01*
X028350Y003175D01*
X028100Y003425D01*
X027850Y003175D01*
X027350Y003175D01*
X027100Y003425D01*
X027100Y003925D01*
X027100Y003425D02*
X026850Y003175D01*
X026350Y003175D01*
X026100Y003425D01*
X025850Y003175D01*
X025350Y003175D01*
X025100Y003425D01*
X026100Y003425D02*
X026100Y003925D01*
X028100Y003925D02*
X028100Y003425D01*
X029100Y003425D02*
X029100Y003925D01*
X031100Y003925D02*
X031100Y003425D01*
X030929Y005518D02*
X030929Y006158D01*
X031036Y005945D02*
X031250Y005945D01*
X031356Y005838D01*
X031356Y005518D01*
X031574Y005624D02*
X031681Y005731D01*
X032001Y005731D01*
X032001Y005838D02*
X032001Y005518D01*
X031681Y005518D01*
X031574Y005624D01*
X031894Y005945D02*
X032001Y005838D01*
X031894Y005945D02*
X031681Y005945D01*
X031036Y005945D02*
X030929Y005838D01*
X030712Y005945D02*
X030392Y005945D01*
X030285Y005838D01*
X030285Y005624D01*
X030392Y005518D01*
X030712Y005518D01*
X030067Y005518D02*
X029747Y005518D01*
X029640Y005624D01*
X029747Y005731D01*
X030067Y005731D01*
X030067Y005838D02*
X030067Y005518D01*
X030067Y005838D02*
X029961Y005945D01*
X029747Y005945D01*
X029424Y005945D02*
X029211Y005945D01*
X029317Y006051D02*
X029317Y005624D01*
X029424Y005518D01*
D15*
X028329Y012007D02*
X028329Y012069D01*
X023932Y013247D02*
X023932Y013310D01*
D16*
X029250Y013625D02*
X031950Y013625D01*
X032001Y013623D01*
X032052Y013618D01*
X032102Y013608D01*
X032152Y013595D01*
X032200Y013579D01*
X032247Y013559D01*
X032293Y013535D01*
X032336Y013509D01*
X032378Y013479D01*
X032417Y013446D01*
X032454Y013411D01*
X032488Y013373D01*
X032519Y013332D01*
X032548Y013290D01*
X032573Y013245D01*
X032594Y013199D01*
X032613Y013151D01*
X032627Y013102D01*
X032638Y013052D01*
X032646Y013002D01*
X032650Y012951D01*
X032650Y012899D01*
X032646Y012848D01*
X032638Y012798D01*
X032627Y012748D01*
X032613Y012699D01*
X032594Y012651D01*
X032573Y012605D01*
X032548Y012560D01*
X032519Y012518D01*
X032488Y012477D01*
X032454Y012439D01*
X032417Y012404D01*
X032378Y012371D01*
X032336Y012341D01*
X032293Y012315D01*
X032247Y012291D01*
X032200Y012271D01*
X032152Y012255D01*
X032102Y012242D01*
X032052Y012232D01*
X032001Y012227D01*
X031950Y012225D01*
X029250Y012225D01*
X029199Y012227D01*
X029148Y012232D01*
X029098Y012242D01*
X029048Y012255D01*
X029000Y012271D01*
X028953Y012291D01*
X028907Y012315D01*
X028864Y012341D01*
X028822Y012371D01*
X028783Y012404D01*
X028746Y012439D01*
X028712Y012477D01*
X028681Y012518D01*
X028652Y012560D01*
X028627Y012605D01*
X028606Y012651D01*
X028587Y012699D01*
X028573Y012748D01*
X028562Y012798D01*
X028554Y012848D01*
X028550Y012899D01*
X028550Y012951D01*
X028554Y013002D01*
X028562Y013052D01*
X028573Y013102D01*
X028587Y013151D01*
X028606Y013199D01*
X028627Y013245D01*
X028652Y013290D01*
X028681Y013332D01*
X028712Y013373D01*
X028746Y013411D01*
X028783Y013446D01*
X028822Y013479D01*
X028864Y013509D01*
X028907Y013535D01*
X028953Y013559D01*
X029000Y013579D01*
X029048Y013595D01*
X029098Y013608D01*
X029148Y013618D01*
X029199Y013623D01*
X029250Y013625D01*
D17*
X031940Y013950D02*
X032015Y013875D01*
X032165Y013875D01*
X032240Y013950D01*
X032240Y014251D01*
X032165Y014326D01*
X032015Y014326D01*
X031940Y014251D01*
X031940Y013950D01*
X032090Y014025D02*
X032240Y013875D01*
X032401Y013950D02*
X032476Y013875D01*
X032626Y013875D01*
X032701Y013950D01*
X032701Y014025D01*
X032626Y014100D01*
X032551Y014100D01*
X032626Y014100D02*
X032701Y014175D01*
X032701Y014251D01*
X032626Y014326D01*
X032476Y014326D01*
X032401Y014251D01*
X032435Y015500D02*
X032135Y015500D01*
X032435Y015801D01*
X032435Y015876D01*
X032360Y015951D01*
X032210Y015951D01*
X032135Y015876D01*
X031975Y015876D02*
X031900Y015951D01*
X031750Y015951D01*
X031675Y015876D01*
X031675Y015575D01*
X031750Y015500D01*
X031900Y015500D01*
X031975Y015575D01*
X030478Y015463D02*
X030178Y015463D01*
X030328Y015463D02*
X030328Y015913D01*
X030178Y015763D01*
X030018Y015838D02*
X029943Y015913D01*
X029793Y015913D01*
X029718Y015838D01*
X029718Y015538D01*
X029793Y015463D01*
X029943Y015463D01*
X030018Y015538D01*
X028855Y016420D02*
X028405Y016420D01*
X028405Y016645D01*
X028480Y016721D01*
X028630Y016721D01*
X028705Y016645D01*
X028705Y016420D01*
X028705Y016570D02*
X028855Y016721D01*
X028855Y016881D02*
X028855Y017181D01*
X028780Y017341D02*
X028855Y017416D01*
X028855Y017566D01*
X028780Y017641D01*
X028705Y017641D01*
X028630Y017566D01*
X028630Y017416D01*
X028555Y017341D01*
X028480Y017341D01*
X028405Y017416D01*
X028405Y017566D01*
X028480Y017641D01*
X028405Y017801D02*
X028855Y017801D01*
X028855Y018102D01*
X028630Y017952D02*
X028630Y017801D01*
X028405Y017801D02*
X028405Y018102D01*
X028405Y018262D02*
X028405Y018562D01*
X028405Y018412D02*
X028855Y018412D01*
X027825Y017680D02*
X027600Y017455D01*
X027675Y017380D02*
X027375Y017680D01*
X027375Y017380D02*
X027825Y017380D01*
X027825Y017220D02*
X027825Y016920D01*
X027825Y017070D02*
X027375Y017070D01*
X027525Y016920D01*
X028405Y016881D02*
X028855Y016881D01*
X028630Y016881D02*
X028630Y017031D01*
X028405Y017181D02*
X028405Y016881D01*
X026325Y016861D02*
X026325Y016560D01*
X026025Y016861D01*
X025950Y016861D01*
X025875Y016785D01*
X025875Y016635D01*
X025950Y016560D01*
X025875Y017021D02*
X026325Y017021D01*
X026175Y017021D02*
X025875Y017321D01*
X025950Y017481D02*
X025875Y017556D01*
X025875Y017706D01*
X025950Y017781D01*
X026025Y017781D01*
X026325Y017481D01*
X026325Y017781D01*
X026325Y017321D02*
X026100Y017096D01*
X024825Y017021D02*
X024375Y017021D01*
X024450Y016861D02*
X024375Y016785D01*
X024375Y016635D01*
X024450Y016560D01*
X024450Y016861D02*
X024525Y016861D01*
X024825Y016560D01*
X024825Y016861D01*
X024675Y017021D02*
X024375Y017321D01*
X024450Y017481D02*
X024375Y017556D01*
X024375Y017706D01*
X024450Y017781D01*
X024525Y017781D01*
X024825Y017481D01*
X024825Y017781D01*
X024825Y017321D02*
X024600Y017096D01*
X023325Y017070D02*
X022875Y017070D01*
X023025Y016920D01*
X023325Y016920D02*
X023325Y017220D01*
X023325Y017380D02*
X022875Y017380D01*
X023100Y017455D02*
X023325Y017680D01*
X023175Y017380D02*
X022875Y017680D01*
X022075Y017680D02*
X021850Y017455D01*
X021925Y017380D02*
X021625Y017680D01*
X021625Y017380D02*
X022075Y017380D01*
X022000Y017220D02*
X021700Y017220D01*
X022000Y016920D01*
X022075Y016995D01*
X022075Y017145D01*
X022000Y017220D01*
X021700Y017220D02*
X021625Y017145D01*
X021625Y016995D01*
X021700Y016920D01*
X022000Y016920D01*
X022075Y016759D02*
X022075Y016459D01*
X022075Y016609D02*
X021625Y016609D01*
X021775Y016459D01*
X021350Y015490D02*
X021275Y015490D01*
X021200Y015415D01*
X021200Y015190D01*
X021350Y015190D01*
X021425Y015265D01*
X021425Y015415D01*
X021350Y015490D01*
X021050Y015340D02*
X021200Y015190D01*
X021200Y015030D02*
X021275Y014955D01*
X021275Y014730D01*
X021275Y014880D02*
X021425Y015030D01*
X021200Y015030D02*
X021050Y015030D01*
X020975Y014955D01*
X020975Y014730D01*
X021425Y014730D01*
X021414Y013990D02*
X021489Y013914D01*
X021489Y013839D01*
X021414Y013764D01*
X021489Y013689D01*
X021489Y013614D01*
X021414Y013539D01*
X021264Y013539D01*
X021189Y013614D01*
X021028Y013614D02*
X020953Y013539D01*
X020803Y013539D01*
X020728Y013614D01*
X020728Y013914D01*
X020803Y013990D01*
X020953Y013990D01*
X021028Y013914D01*
X021189Y013914D02*
X021264Y013990D01*
X021414Y013990D01*
X021414Y013764D02*
X021339Y013764D01*
X022774Y013555D02*
X022849Y013480D01*
X022924Y013480D01*
X022999Y013555D01*
X022999Y013931D01*
X022924Y013931D02*
X023074Y013931D01*
X023234Y013931D02*
X023459Y013931D01*
X023534Y013856D01*
X023534Y013705D01*
X023459Y013630D01*
X023234Y013630D01*
X023234Y013480D02*
X023234Y013931D01*
X023695Y013856D02*
X023770Y013931D01*
X023920Y013931D01*
X023995Y013856D01*
X023995Y013781D01*
X023695Y013480D01*
X023995Y013480D01*
X023995Y012931D02*
X023695Y012931D01*
X023695Y012705D01*
X023845Y012781D01*
X023920Y012781D01*
X023995Y012705D01*
X023995Y012555D01*
X023920Y012480D01*
X023770Y012480D01*
X023695Y012555D01*
X023534Y012705D02*
X023459Y012630D01*
X023234Y012630D01*
X023234Y012480D02*
X023234Y012931D01*
X023459Y012931D01*
X023534Y012856D01*
X023534Y012705D01*
X023074Y012931D02*
X022924Y012931D01*
X022999Y012931D02*
X022999Y012555D01*
X022924Y012480D01*
X022849Y012480D01*
X022774Y012555D01*
X021956Y012151D02*
X021656Y011850D01*
X021731Y011925D02*
X021956Y011700D01*
X021656Y011700D02*
X021656Y012151D01*
X021496Y012076D02*
X021195Y011775D01*
X021270Y011700D01*
X021421Y011700D01*
X021496Y011775D01*
X021496Y012076D01*
X021421Y012151D01*
X021270Y012151D01*
X021195Y012076D01*
X021195Y011775D01*
X021035Y011700D02*
X020735Y011700D01*
X020885Y011700D02*
X020885Y012151D01*
X020735Y012001D01*
X020757Y012526D02*
X020757Y018825D01*
X012293Y018825D01*
X012293Y012526D01*
X020757Y012526D01*
X019159Y011937D02*
X019159Y011487D01*
X019009Y011487D02*
X019309Y011487D01*
X019009Y011787D02*
X019159Y011937D01*
X018849Y011862D02*
X018849Y011712D01*
X018774Y011637D01*
X018549Y011637D01*
X018699Y011637D02*
X018849Y011487D01*
X018549Y011487D02*
X018549Y011937D01*
X018774Y011937D01*
X018849Y011862D01*
X021050Y015340D02*
X020975Y015490D01*
X022225Y018230D02*
X022225Y018455D01*
X022300Y018530D01*
X022450Y018530D01*
X022525Y018455D01*
X022525Y018230D01*
X022525Y018380D02*
X022675Y018530D01*
X022675Y018690D02*
X022375Y018990D01*
X022300Y018990D01*
X022225Y018915D01*
X022225Y018765D01*
X022300Y018690D01*
X022675Y018690D02*
X022675Y018990D01*
X023712Y018938D02*
X023712Y018788D01*
X023787Y018713D01*
X023787Y018553D02*
X023937Y018553D01*
X024013Y018477D01*
X024013Y018252D01*
X024163Y018252D02*
X023712Y018252D01*
X023712Y018477D01*
X023787Y018553D01*
X024013Y018402D02*
X024163Y018553D01*
X024088Y018713D02*
X024163Y018788D01*
X024163Y018938D01*
X024088Y019013D01*
X024013Y019013D01*
X023937Y018938D01*
X023937Y018863D01*
X023937Y018938D02*
X023862Y019013D01*
X023787Y019013D01*
X023712Y018938D01*
X022675Y018230D02*
X022225Y018230D01*
X025212Y018315D02*
X025212Y018540D01*
X025287Y018615D01*
X025437Y018615D01*
X025513Y018540D01*
X025513Y018315D01*
X025663Y018315D02*
X025212Y018315D01*
X025513Y018465D02*
X025663Y018615D01*
X025588Y018775D02*
X025663Y018850D01*
X025663Y019000D01*
X025588Y019075D01*
X025437Y019075D01*
X025362Y019000D01*
X025362Y018925D01*
X025437Y018775D01*
X025212Y018775D01*
X025212Y019075D01*
X026786Y019041D02*
X027011Y018816D01*
X027011Y019116D01*
X027236Y019041D02*
X026786Y019041D01*
X026861Y018656D02*
X027011Y018656D01*
X027086Y018581D01*
X027086Y018355D01*
X027236Y018355D02*
X026786Y018355D01*
X026786Y018581D01*
X026861Y018656D01*
X027086Y018506D02*
X027236Y018656D01*
X011696Y019118D02*
X011396Y018818D01*
X011396Y018743D01*
X011236Y018818D02*
X011161Y018743D01*
X011011Y018743D01*
X010936Y018818D01*
X010936Y019118D01*
X011011Y019194D01*
X011161Y019194D01*
X011236Y019118D01*
X011396Y019194D02*
X011696Y019194D01*
X011696Y019118D01*
X008167Y019208D02*
X007867Y019208D01*
X007867Y018982D01*
X008017Y019058D01*
X008092Y019058D01*
X008167Y018982D01*
X008167Y018832D01*
X008092Y018757D01*
X007942Y018757D01*
X007867Y018832D01*
X007707Y018832D02*
X007632Y018757D01*
X007481Y018757D01*
X007406Y018832D01*
X007406Y019133D01*
X007481Y019208D01*
X007632Y019208D01*
X007707Y019133D01*
X005855Y018163D02*
X005855Y018013D01*
X005780Y017938D01*
X005780Y017777D02*
X005855Y017702D01*
X005855Y017552D01*
X005780Y017477D01*
X005480Y017477D01*
X005405Y017552D01*
X005405Y017702D01*
X005480Y017777D01*
X005480Y017938D02*
X005405Y018013D01*
X005405Y018163D01*
X005480Y018238D01*
X005555Y018238D01*
X005630Y018163D01*
X005705Y018238D01*
X005780Y018238D01*
X005855Y018163D01*
X005630Y018163D02*
X005630Y018088D01*
X005215Y018762D02*
X005215Y019212D01*
X004989Y018987D01*
X005290Y018987D01*
X004829Y019137D02*
X004754Y019212D01*
X004604Y019212D01*
X004529Y019137D01*
X004529Y018837D01*
X004604Y018762D01*
X004754Y018762D01*
X004829Y018837D01*
X005405Y017320D02*
X005405Y017170D01*
X005405Y017245D02*
X005855Y017245D01*
X005855Y017170D02*
X005855Y017320D01*
X002357Y016004D02*
X002357Y015854D01*
X002282Y015779D01*
X002131Y015929D02*
X002131Y016004D01*
X002206Y016079D01*
X002282Y016079D01*
X002357Y016004D01*
X002131Y016004D02*
X002056Y016079D01*
X001981Y016079D01*
X001906Y016004D01*
X001906Y015854D01*
X001981Y015779D01*
X001981Y015619D02*
X002131Y015619D01*
X002206Y015544D01*
X002206Y015319D01*
X002357Y015319D02*
X001906Y015319D01*
X001906Y015544D01*
X001981Y015619D01*
X001906Y015158D02*
X001906Y015008D01*
X001906Y015083D02*
X002282Y015083D01*
X002357Y015008D01*
X002357Y014933D01*
X002282Y014858D01*
X000923Y013743D02*
X000923Y013668D01*
X000848Y013668D01*
X000848Y013743D01*
X000923Y013743D01*
X000773Y013508D02*
X000473Y013508D01*
X000773Y013508D02*
X000923Y013357D01*
X000773Y013207D01*
X000473Y013207D01*
X000473Y013051D02*
X000473Y012900D01*
X000473Y012975D02*
X000923Y012975D01*
X000923Y012900D02*
X000923Y013051D01*
X000923Y012590D02*
X000473Y012590D01*
X000473Y012440D02*
X000473Y012740D01*
X000548Y012280D02*
X000473Y012205D01*
X000473Y012055D01*
X000548Y011980D01*
X000848Y011980D01*
X000923Y012055D01*
X000923Y012205D01*
X000848Y012280D01*
X000923Y011820D02*
X000623Y011820D01*
X000473Y011669D01*
X000623Y011519D01*
X000923Y011519D01*
X000698Y011519D02*
X000698Y011820D01*
X002100Y011675D02*
X002100Y003175D01*
X011100Y003175D01*
X011100Y012175D01*
X002600Y012175D01*
X002100Y011675D01*
X003350Y010425D02*
X003850Y010925D01*
X004450Y010925D02*
X004450Y011775D01*
X004750Y011775D01*
X004750Y010925D01*
X005450Y010925D02*
X005450Y011775D01*
X005750Y011775D01*
X005750Y010925D01*
X006450Y010925D02*
X006450Y011775D01*
X006750Y011775D01*
X006750Y010925D01*
X007450Y010925D02*
X007450Y011775D01*
X007750Y011775D01*
X007750Y010925D01*
X008450Y010925D02*
X008450Y011775D01*
X008750Y011775D01*
X008750Y010925D01*
X009450Y010925D02*
X010300Y011775D01*
X010700Y011375D01*
X009850Y010525D01*
X009850Y009825D02*
X010700Y009825D01*
X010700Y009525D01*
X009850Y009525D01*
X009850Y008825D02*
X010700Y008825D01*
X010700Y008525D01*
X009850Y008525D01*
X009850Y007825D02*
X010700Y007825D01*
X010700Y007525D01*
X009850Y007525D01*
X009850Y006825D02*
X010700Y006825D01*
X010700Y006525D01*
X009850Y006525D01*
X009850Y005825D02*
X010700Y005825D01*
X010700Y005525D01*
X009850Y005525D01*
X009850Y005025D02*
X009850Y004425D01*
X009250Y004425D01*
X008750Y004425D02*
X008750Y003575D01*
X008450Y003575D01*
X008450Y004425D01*
X007750Y004425D02*
X007750Y003575D01*
X007450Y003575D01*
X007450Y004425D01*
X006750Y004425D02*
X006750Y003575D01*
X006450Y003575D01*
X006450Y004425D01*
X005750Y004425D02*
X005750Y003575D01*
X005450Y003575D01*
X005450Y004425D01*
X004750Y004425D02*
X004750Y003575D01*
X004450Y003575D01*
X004450Y004425D01*
X003750Y004425D02*
X002900Y003575D01*
X002500Y003975D01*
X003350Y004825D01*
X003350Y005525D02*
X002500Y005525D01*
X002500Y005825D01*
X003350Y005825D01*
X003350Y006525D02*
X002500Y006525D01*
X002500Y006825D01*
X003350Y006825D01*
X003350Y007525D02*
X002500Y007525D01*
X002500Y007825D01*
X003350Y007825D01*
X003350Y008525D02*
X002500Y008525D01*
X002500Y008825D01*
X003350Y008825D01*
X003350Y009525D02*
X002500Y009525D01*
X002500Y009825D01*
X003350Y009825D01*
X001939Y010048D02*
X001638Y010048D01*
X001789Y010048D02*
X001789Y010498D01*
X001638Y010348D01*
X001478Y010273D02*
X001403Y010198D01*
X001178Y010198D01*
X001178Y010048D02*
X001178Y010498D01*
X001403Y010498D01*
X001478Y010423D01*
X001478Y010273D01*
X001018Y010498D02*
X000868Y010498D01*
X000943Y010498D02*
X000943Y010123D01*
X000868Y010048D01*
X000793Y010048D01*
X000718Y010123D01*
X004634Y013025D02*
X004709Y012950D01*
X004859Y012950D01*
X004934Y013025D01*
X004934Y013100D01*
X004859Y013175D01*
X004784Y013175D01*
X004859Y013175D02*
X004934Y013251D01*
X004934Y013326D01*
X004859Y013401D01*
X004709Y013401D01*
X004634Y013326D01*
X005094Y013326D02*
X005094Y013025D01*
X005394Y013326D01*
X005394Y013025D01*
X005319Y012950D01*
X005169Y012950D01*
X005094Y013025D01*
X005094Y013326D02*
X005169Y013401D01*
X005319Y013401D01*
X005394Y013326D01*
X005555Y013326D02*
X005630Y013401D01*
X005780Y013401D01*
X005855Y013326D01*
X005555Y013025D01*
X005630Y012950D01*
X005780Y012950D01*
X005855Y013025D01*
X005855Y013326D01*
X005555Y013326D02*
X005555Y013025D01*
X006530Y012801D02*
X006755Y012801D01*
X006830Y012726D01*
X006830Y012576D01*
X006755Y012501D01*
X006530Y012501D01*
X006680Y012501D02*
X006830Y012350D01*
X006991Y012426D02*
X006991Y012501D01*
X007066Y012576D01*
X007216Y012576D01*
X007291Y012501D01*
X007291Y012426D01*
X007216Y012350D01*
X007066Y012350D01*
X006991Y012426D01*
X007066Y012576D02*
X006991Y012651D01*
X006991Y012726D01*
X007066Y012801D01*
X007216Y012801D01*
X007291Y012726D01*
X007291Y012651D01*
X007216Y012576D01*
X006530Y012801D02*
X006530Y012350D01*
X010525Y013250D02*
X010525Y013475D01*
X010600Y013551D01*
X010750Y013551D01*
X010825Y013475D01*
X010825Y013250D01*
X010975Y013250D02*
X010525Y013250D01*
X010825Y013400D02*
X010975Y013551D01*
X010975Y013711D02*
X010900Y013711D01*
X010600Y014011D01*
X010525Y014011D01*
X010525Y013711D01*
X011375Y013710D02*
X011825Y013710D01*
X011825Y013560D02*
X011825Y013861D01*
X011750Y014021D02*
X011450Y014021D01*
X011375Y014096D01*
X011375Y014246D01*
X011450Y014321D01*
X011750Y014021D01*
X011825Y014096D01*
X011825Y014246D01*
X011750Y014321D01*
X011450Y014321D01*
X011375Y014481D02*
X011825Y014481D01*
X011675Y014481D02*
X011375Y014781D01*
X011600Y014556D02*
X011825Y014781D01*
X011375Y013710D02*
X011525Y013560D01*
X007100Y008675D02*
X007102Y008719D01*
X007108Y008763D01*
X007118Y008806D01*
X007131Y008848D01*
X007148Y008889D01*
X007169Y008928D01*
X007193Y008965D01*
X007220Y009000D01*
X007250Y009032D01*
X007283Y009062D01*
X007319Y009088D01*
X007356Y009112D01*
X007396Y009131D01*
X007437Y009148D01*
X007480Y009160D01*
X007523Y009169D01*
X007567Y009174D01*
X007611Y009175D01*
X007655Y009172D01*
X007699Y009165D01*
X007742Y009154D01*
X007784Y009140D01*
X007824Y009122D01*
X007863Y009100D01*
X007899Y009076D01*
X007933Y009048D01*
X007965Y009017D01*
X007994Y008983D01*
X008020Y008947D01*
X008042Y008909D01*
X008061Y008869D01*
X008076Y008827D01*
X008088Y008785D01*
X008096Y008741D01*
X008100Y008697D01*
X008100Y008653D01*
X008096Y008609D01*
X008088Y008565D01*
X008076Y008523D01*
X008061Y008481D01*
X008042Y008441D01*
X008020Y008403D01*
X007994Y008367D01*
X007965Y008333D01*
X007933Y008302D01*
X007899Y008274D01*
X007863Y008250D01*
X007824Y008228D01*
X007784Y008210D01*
X007742Y008196D01*
X007699Y008185D01*
X007655Y008178D01*
X007611Y008175D01*
X007567Y008176D01*
X007523Y008181D01*
X007480Y008190D01*
X007437Y008202D01*
X007396Y008219D01*
X007356Y008238D01*
X007319Y008262D01*
X007283Y008288D01*
X007250Y008318D01*
X007220Y008350D01*
X007193Y008385D01*
X007169Y008422D01*
X007148Y008461D01*
X007131Y008502D01*
X007118Y008544D01*
X007108Y008587D01*
X007102Y008631D01*
X007100Y008675D01*
X005100Y008675D02*
X005102Y008719D01*
X005108Y008763D01*
X005118Y008806D01*
X005131Y008848D01*
X005148Y008889D01*
X005169Y008928D01*
X005193Y008965D01*
X005220Y009000D01*
X005250Y009032D01*
X005283Y009062D01*
X005319Y009088D01*
X005356Y009112D01*
X005396Y009131D01*
X005437Y009148D01*
X005480Y009160D01*
X005523Y009169D01*
X005567Y009174D01*
X005611Y009175D01*
X005655Y009172D01*
X005699Y009165D01*
X005742Y009154D01*
X005784Y009140D01*
X005824Y009122D01*
X005863Y009100D01*
X005899Y009076D01*
X005933Y009048D01*
X005965Y009017D01*
X005994Y008983D01*
X006020Y008947D01*
X006042Y008909D01*
X006061Y008869D01*
X006076Y008827D01*
X006088Y008785D01*
X006096Y008741D01*
X006100Y008697D01*
X006100Y008653D01*
X006096Y008609D01*
X006088Y008565D01*
X006076Y008523D01*
X006061Y008481D01*
X006042Y008441D01*
X006020Y008403D01*
X005994Y008367D01*
X005965Y008333D01*
X005933Y008302D01*
X005899Y008274D01*
X005863Y008250D01*
X005824Y008228D01*
X005784Y008210D01*
X005742Y008196D01*
X005699Y008185D01*
X005655Y008178D01*
X005611Y008175D01*
X005567Y008176D01*
X005523Y008181D01*
X005480Y008190D01*
X005437Y008202D01*
X005396Y008219D01*
X005356Y008238D01*
X005319Y008262D01*
X005283Y008288D01*
X005250Y008318D01*
X005220Y008350D01*
X005193Y008385D01*
X005169Y008422D01*
X005148Y008461D01*
X005131Y008502D01*
X005118Y008544D01*
X005108Y008587D01*
X005102Y008631D01*
X005100Y008675D01*
X005100Y006675D02*
X005102Y006719D01*
X005108Y006763D01*
X005118Y006806D01*
X005131Y006848D01*
X005148Y006889D01*
X005169Y006928D01*
X005193Y006965D01*
X005220Y007000D01*
X005250Y007032D01*
X005283Y007062D01*
X005319Y007088D01*
X005356Y007112D01*
X005396Y007131D01*
X005437Y007148D01*
X005480Y007160D01*
X005523Y007169D01*
X005567Y007174D01*
X005611Y007175D01*
X005655Y007172D01*
X005699Y007165D01*
X005742Y007154D01*
X005784Y007140D01*
X005824Y007122D01*
X005863Y007100D01*
X005899Y007076D01*
X005933Y007048D01*
X005965Y007017D01*
X005994Y006983D01*
X006020Y006947D01*
X006042Y006909D01*
X006061Y006869D01*
X006076Y006827D01*
X006088Y006785D01*
X006096Y006741D01*
X006100Y006697D01*
X006100Y006653D01*
X006096Y006609D01*
X006088Y006565D01*
X006076Y006523D01*
X006061Y006481D01*
X006042Y006441D01*
X006020Y006403D01*
X005994Y006367D01*
X005965Y006333D01*
X005933Y006302D01*
X005899Y006274D01*
X005863Y006250D01*
X005824Y006228D01*
X005784Y006210D01*
X005742Y006196D01*
X005699Y006185D01*
X005655Y006178D01*
X005611Y006175D01*
X005567Y006176D01*
X005523Y006181D01*
X005480Y006190D01*
X005437Y006202D01*
X005396Y006219D01*
X005356Y006238D01*
X005319Y006262D01*
X005283Y006288D01*
X005250Y006318D01*
X005220Y006350D01*
X005193Y006385D01*
X005169Y006422D01*
X005148Y006461D01*
X005131Y006502D01*
X005118Y006544D01*
X005108Y006587D01*
X005102Y006631D01*
X005100Y006675D01*
X007100Y006675D02*
X007102Y006719D01*
X007108Y006763D01*
X007118Y006806D01*
X007131Y006848D01*
X007148Y006889D01*
X007169Y006928D01*
X007193Y006965D01*
X007220Y007000D01*
X007250Y007032D01*
X007283Y007062D01*
X007319Y007088D01*
X007356Y007112D01*
X007396Y007131D01*
X007437Y007148D01*
X007480Y007160D01*
X007523Y007169D01*
X007567Y007174D01*
X007611Y007175D01*
X007655Y007172D01*
X007699Y007165D01*
X007742Y007154D01*
X007784Y007140D01*
X007824Y007122D01*
X007863Y007100D01*
X007899Y007076D01*
X007933Y007048D01*
X007965Y007017D01*
X007994Y006983D01*
X008020Y006947D01*
X008042Y006909D01*
X008061Y006869D01*
X008076Y006827D01*
X008088Y006785D01*
X008096Y006741D01*
X008100Y006697D01*
X008100Y006653D01*
X008096Y006609D01*
X008088Y006565D01*
X008076Y006523D01*
X008061Y006481D01*
X008042Y006441D01*
X008020Y006403D01*
X007994Y006367D01*
X007965Y006333D01*
X007933Y006302D01*
X007899Y006274D01*
X007863Y006250D01*
X007824Y006228D01*
X007784Y006210D01*
X007742Y006196D01*
X007699Y006185D01*
X007655Y006178D01*
X007611Y006175D01*
X007567Y006176D01*
X007523Y006181D01*
X007480Y006190D01*
X007437Y006202D01*
X007396Y006219D01*
X007356Y006238D01*
X007319Y006262D01*
X007283Y006288D01*
X007250Y006318D01*
X007220Y006350D01*
X007193Y006385D01*
X007169Y006422D01*
X007148Y006461D01*
X007131Y006502D01*
X007118Y006544D01*
X007108Y006587D01*
X007102Y006631D01*
X007100Y006675D01*
X001411Y018800D02*
X001260Y018800D01*
X001185Y018875D01*
X001185Y019025D01*
X001411Y019025D01*
X001486Y018950D01*
X001486Y018875D01*
X001411Y018800D01*
X001185Y019025D02*
X001336Y019176D01*
X001486Y019251D01*
X001025Y019176D02*
X000950Y019251D01*
X000800Y019251D01*
X000725Y019176D01*
X000725Y018875D01*
X000800Y018800D01*
X000950Y018800D01*
X001025Y018875D01*
X032303Y004588D02*
X032528Y004363D01*
X032528Y004663D01*
X032753Y004588D02*
X032303Y004588D01*
X032378Y004203D02*
X032528Y004203D01*
X032603Y004127D01*
X032603Y003902D01*
X032753Y003902D02*
X032303Y003902D01*
X032303Y004127D01*
X032378Y004203D01*
X032303Y003742D02*
X032303Y003592D01*
X032303Y003667D02*
X032678Y003667D01*
X032753Y003592D01*
X032753Y003517D01*
X032678Y003442D01*
D18*
X031730Y014625D02*
X031730Y015225D01*
X031480Y015225D02*
X031480Y014625D01*
X029720Y014625D02*
X029720Y015225D01*
X029470Y015225D02*
X029470Y014625D01*
D19*
X006850Y009425D02*
X006350Y009425D01*
X006600Y009675D01*
X006850Y009425D01*
X006600Y009675D02*
X006600Y008925D01*
D20*
X002545Y013572D02*
X002515Y013620D01*
X002482Y013665D01*
X002446Y013708D01*
X002408Y013749D01*
X002366Y013786D01*
X002322Y013821D01*
X002276Y013852D01*
X002227Y013881D01*
X002177Y013905D01*
X002125Y013926D01*
X002071Y013944D01*
X002017Y013957D01*
X001962Y013967D01*
X001906Y013973D01*
X001850Y013975D01*
X002556Y012799D02*
X002529Y012752D01*
X002499Y012707D01*
X002466Y012664D01*
X002430Y012624D01*
X002391Y012586D01*
X002350Y012551D01*
X002307Y012518D01*
X002262Y012489D01*
X002214Y012463D01*
X002165Y012440D01*
X002115Y012420D01*
X002064Y012404D01*
X002011Y012391D01*
X001958Y012382D01*
X001904Y012377D01*
X001850Y012375D01*
X001239Y013692D02*
X001275Y013731D01*
X001314Y013769D01*
X001354Y013803D01*
X001397Y013835D01*
X001442Y013863D01*
X001489Y013889D01*
X001538Y013912D01*
X001588Y013931D01*
X001639Y013947D01*
X001691Y013959D01*
X001743Y013968D01*
X001797Y013973D01*
X001850Y013975D01*
X001235Y012663D02*
X001271Y012623D01*
X001310Y012585D01*
X001351Y012550D01*
X001394Y012518D01*
X001439Y012488D01*
X001486Y012462D01*
X001535Y012440D01*
X001586Y012420D01*
X001637Y012404D01*
X001689Y012391D01*
X001743Y012382D01*
X001796Y012377D01*
X001850Y012375D01*
X001400Y017575D02*
X001100Y017575D01*
X000800Y017575D01*
X000800Y017775D02*
X001100Y017775D01*
X001400Y017775D01*
X011050Y017775D02*
X011350Y017775D01*
X011650Y017775D01*
X011650Y017575D02*
X011350Y017575D01*
X011050Y017575D01*
X022000Y013225D02*
X022000Y012925D01*
X022000Y012625D01*
X022200Y012625D02*
X022200Y012925D01*
X022200Y013225D01*
D21*
X018356Y018038D03*
D22*
X020180Y011925D03*
X023020Y011925D03*
X006520Y013175D03*
X003680Y013175D03*
D23*
X011600Y013005D03*
X011600Y015845D03*
X021850Y015505D03*
X023100Y015505D03*
X024600Y015505D03*
X026100Y015505D03*
X027600Y015505D03*
X027600Y018345D03*
X026100Y018345D03*
X024600Y018345D03*
X023100Y018345D03*
X021850Y018345D03*
M02*
